<svg width="32" height="32" viewBox="0 0 32 32" fill="none" xmlns="http://www.w3.org/2000/svg">
<path d="M10.16 18.3921L10.63 17.864C10.2866 16.7666 10.2857 15.5584 10.6525 14.4428C7.95125 15.9268 4.53144 15.3355 2.49 12.9209C0.97375 14.1234 0 15.9815 0 18.0628V27.4378C0 27.9553 0.42 28.3753 0.9375 28.3753H8.66125C8.55688 28.0821 8.5 27.7665 8.5 27.4378V22.7503C8.5 21.1428 9.08937 19.5946 10.16 18.3921Z" fill="#EB5D5E"/>
<path d="M7.5 13.375C10.0888 13.375 12.1875 11.2763 12.1875 8.68749C12.1875 6.09866 10.0888 4 7.5 4C4.91117 4 2.8125 6.09866 2.8125 8.68749C2.8125 11.2763 4.91117 13.375 7.5 13.375Z" fill="#EB5D5E"/>
<path d="M29.5102 12.9209C27.465 15.3398 24.0428 15.9247 21.3477 14.4421C21.7139 15.56 21.714 16.7651 21.3702 17.864L21.8402 18.3921C22.9108 19.5946 23.5002 21.1428 23.5002 22.7503V27.4378C23.5002 27.7665 23.4433 28.0821 23.3389 28.3753H31.0627C31.5802 28.3753 32.0002 27.9553 32.0002 27.4378V18.0628C32.0002 15.9815 31.0264 14.1234 29.5102 12.9209Z" fill="#EB5D5E"/>
<path d="M24.5 13.375C27.0888 13.375 29.1875 11.2763 29.1875 8.68749C29.1875 6.09866 27.0888 4 24.5 4C21.9112 4 19.8125 6.09866 19.8125 8.68749C19.8125 11.2763 21.9112 13.375 24.5 13.375Z" fill="#EB5D5E"/>
<path d="M16 21.8126C14.1975 21.8126 12.5906 20.9607 11.5606 19.6382C10.8231 20.4669 10.375 21.5569 10.375 22.7501V27.4376C10.375 27.9551 10.795 28.3751 11.3125 28.3751H20.6875C21.205 28.3751 21.625 27.9551 21.625 27.4376V22.7501C21.625 21.5569 21.1769 20.4669 20.4394 19.6382C19.4094 20.9607 17.8025 21.8126 16 21.8126Z" fill="#EB5D5E"/>
<path d="M16 19.9375C18.0711 19.9375 19.75 18.2586 19.75 16.1875C19.75 14.1164 18.0711 12.4375 16 12.4375C13.9289 12.4375 12.25 14.1164 12.25 16.1875C12.25 18.2586 13.9289 19.9375 16 19.9375Z" fill="#EB5D5E"/>
</svg>
