<svg width="8" height="8" viewBox="0 0 8 8" fill="none" xmlns="http://www.w3.org/2000/svg">
<g clip-path="url(#clip0)">
<path d="M3.08202 5.1505L2.95928 5.87953C2.94255 5.9792 2.98344 6.07964 3.06504 6.13912C3.14676 6.19847 3.25527 6.20642 3.34456 6.15963L4 5.81749L4.65545 6.15969C4.69423 6.17982 4.73672 6.18995 4.77877 6.18995C4.83383 6.18995 4.88876 6.17271 4.9351 6.13918C5.01676 6.0797 5.05778 5.97926 5.04092 5.8796L4.91831 5.15057L5.44607 4.63286C5.51824 4.56217 5.54395 4.45667 5.51299 4.36065C5.4819 4.2647 5.3987 4.19445 5.29884 4.17971L4.56751 4.07126L4.23812 3.40921C4.19345 3.31883 4.10089 3.2616 3.99994 3.2616C3.89918 3.2616 3.80669 3.31883 3.76163 3.40921L3.43256 4.07126L2.70123 4.17964C2.60118 4.19438 2.51837 4.26463 2.48721 4.36059C2.45606 4.4566 2.4817 4.56223 2.554 4.6328L3.08202 5.1505Z" fill="#FBFCFE"/>
<path d="M7.14308 0.850549H6.30567V0.386046C6.30567 0.172864 6.13287 6.10352e-05 5.91962 6.10352e-05H5.85841C5.64523 6.10352e-05 5.47249 0.172864 5.47249 0.386046V0.850549H2.51786V0.386046C2.51786 0.172864 2.34506 6.10352e-05 2.13194 6.10352e-05H2.07066C1.85748 6.10352e-05 1.68474 0.172864 1.68474 0.386046V0.850549H0.857072C0.419105 0.850549 0.0626678 1.20686 0.0626678 1.64495V7.20572C0.0626678 7.64356 0.419105 8.00012 0.857072 8.00012H7.14315C7.58105 8.00012 7.93755 7.64362 7.93755 7.20572V1.64495C7.93749 1.20686 7.58099 0.850549 7.14308 0.850549ZM7.03944 7.10208H0.960715V2.77336H7.03944V7.10208Z" fill="#FBFCFE"/>
</g>
<defs>
<clipPath id="clip0">
<rect width="8" height="8" fill="white"/>
</clipPath>
</defs>
</svg>
