<svg width="8" height="8" viewBox="0 0 8 8" fill="none" xmlns="http://www.w3.org/2000/svg">
<g clip-path="url(#clip0)">
<path d="M7.71151 2.68551L3.35862 7.04487C3.17182 7.23167 2.92376 7.33434 2.66017 7.33434C2.39658 7.33434 2.14853 7.23167 1.96173 7.04487L0.289164 5.3723C0.102797 5.18594 0.00012207 4.93788 0.00012207 4.67429C0.00012207 4.4107 0.102797 4.16264 0.289164 3.97627C0.475532 3.78991 0.72359 3.6868 0.987611 3.6868C1.2512 3.6868 1.49926 3.78947 1.68563 3.97627L2.65974 4.95039L6.31462 1.28947C6.50142 1.10268 6.74904 1 7.01306 1C7.27665 1 7.52471 1.10268 7.71151 1.28904C8.09633 1.67386 8.09633 2.30069 7.71151 2.68551Z" fill="#3FB072"/>
</g>
<defs>
<clipPath id="clip0">
<rect width="8" height="8" fill="white"/>
</clipPath>
</defs>
</svg>
