<svg width="8" height="8" viewBox="0 0 8 8" fill="none" xmlns="http://www.w3.org/2000/svg">
<g clip-path="url(#clip0)">
<path d="M7.68981 6.19257L5.49738 4.00014L7.68981 1.8077C8.10328 1.39423 8.10328 0.723831 7.68981 0.310366C7.27635 -0.103098 6.60595 -0.103098 6.19248 0.310366L3.99987 2.5028L1.80743 0.31019C1.39379 -0.103275 0.723386 -0.103275 0.310098 0.31019C-0.103366 0.723831 -0.103366 1.39423 0.310098 1.80752L2.50271 3.99996L0.310098 6.1924C-0.103366 6.60604 -0.103366 7.27644 0.310098 7.68973C0.517095 7.89655 0.787797 7.99978 1.05885 7.99978C1.32973 7.99978 1.60079 7.89637 1.80761 7.68973L3.99987 5.49747L6.19248 7.6899C6.39948 7.89655 6.67018 7.99996 6.94124 7.99996C7.21229 7.99996 7.48317 7.89655 7.68999 7.6899C8.10328 7.27644 8.10328 6.60622 7.68981 6.19257Z" fill="#EB5D5E"/>
</g>
<defs>
<clipPath id="clip0">
<rect width="8" height="8" fill="white"/>
</clipPath>
</defs>
</svg>
