<svg width="28" height="32" viewBox="0 0 28 32" fill="none" xmlns="http://www.w3.org/2000/svg">
<g clip-path="url(#clip0_1_40511)">
<path d="M0.193277 9.80495C0.193277 8.29402 0.2 6.78309 0.189916 5.27217C0.184874 4.58103 0.494118 4.32041 1.21345 4.30887C5.72773 4.24124 9.88571 3.10474 13.4454 0.254435C13.8958 -0.106802 14.2739 -0.0688639 14.7126 0.280827C18.2286 3.08495 22.3311 4.21485 26.7849 4.31052C27.4034 4.32371 27.9008 4.3666 27.9244 5.1501C28.0756 9.93361 28.0941 14.7039 27.0235 19.4165C26.3916 22.1959 24.9882 24.492 22.8471 26.3922C20.4252 28.5414 17.7748 30.3641 14.8521 31.7909C14.4958 31.9658 13.9345 32.0829 13.6151 31.9311C9.73109 30.0738 6.21008 27.7134 3.42521 24.4243C1.62017 22.2915 0.998319 19.6837 0.647059 17.0313C0.329412 14.6379 0.208403 12.2214 0 9.81485C0.0638655 9.81155 0.129412 9.80825 0.193277 9.80495ZM12.4403 17.9221C11.5193 17.0511 10.6471 16.2462 9.8 15.4165C9.30252 14.9299 8.78992 14.6973 8.18992 15.2054C7.67731 15.6392 7.74958 16.2099 8.37311 16.84C9.38655 17.8643 10.405 18.8854 11.4286 19.9014C12.1933 20.6602 12.6706 20.6602 13.3899 19.8882C15.5227 17.5955 17.6504 15.2994 19.7748 13.0016C20.3731 12.3534 20.4269 11.7662 19.8992 11.3571C19.284 10.8804 18.7697 11.1146 18.2975 11.6309C17.1748 12.8565 16.0387 14.0705 14.9059 15.2878C14.079 16.172 13.2504 17.0544 12.4403 17.9221Z" fill="#0CB5C3"/>
</g>
<defs>
<clipPath id="clip0_1_40511">
<rect width="28" height="32" fill="white"/>
</clipPath>
</defs>
</svg>
