<svg width="32" height="32" viewBox="0 0 32 32" fill="none" xmlns="http://www.w3.org/2000/svg">
<g clip-path="url(#clip0_1_40318)">
<path d="M10.16 21.9542L10.63 21.426C10.2866 20.3286 10.2857 19.1204 10.6525 18.0048C7.95125 19.4888 4.53144 18.8975 2.49 16.4829C0.97375 17.6854 0 19.5435 0 21.6248V30.9998C0 31.5173 0.42 31.9373 0.9375 31.9373H8.66125C8.55688 31.6442 8.5 31.3285 8.5 30.9998V26.3123C8.5 24.7048 9.08937 23.1567 10.16 21.9542Z" fill="#0CB5C3"/>
<path d="M7.5 16.9372C10.0888 16.9372 12.1875 14.8386 12.1875 12.2497C12.1875 9.66092 10.0888 7.56226 7.5 7.56226C4.91117 7.56226 2.8125 9.66092 2.8125 12.2497C2.8125 14.8386 4.91117 16.9372 7.5 16.9372Z" fill="#0CB5C3"/>
<path d="M29.5102 16.4829C27.465 18.9018 24.0428 19.4867 21.3477 18.0042C21.7139 19.122 21.714 20.3271 21.3702 21.426L21.8402 21.9542C22.9108 23.1567 23.5002 24.7048 23.5002 26.3123V30.9998C23.5002 31.3285 23.4433 31.6442 23.3389 31.9373H31.0627C31.5802 31.9373 32.0002 31.5173 32.0002 30.9998V21.6248C32.0002 19.5435 31.0264 17.6854 29.5102 16.4829Z" fill="#0CB5C3"/>
<path d="M24.5 16.9372C27.0888 16.9372 29.1875 14.8386 29.1875 12.2497C29.1875 9.66092 27.0888 7.56226 24.5 7.56226C21.9112 7.56226 19.8125 9.66092 19.8125 12.2497C19.8125 14.8386 21.9112 16.9372 24.5 16.9372Z" fill="#0CB5C3"/>
<path d="M16 25.3748C14.1975 25.3748 12.5906 24.5229 11.5606 23.2004C10.8231 24.0292 10.375 25.1192 10.375 26.3123V30.9998C10.375 31.5173 10.795 31.9373 11.3125 31.9373H20.6875C21.205 31.9373 21.625 31.5173 21.625 30.9998V26.3123C21.625 25.1192 21.1769 24.0292 20.4394 23.2004C19.4094 24.5229 17.8025 25.3748 16 25.3748Z" fill="#0CB5C3"/>
<path d="M16 23.4997C18.0711 23.4997 19.75 21.8208 19.75 19.7497C19.75 17.6787 18.0711 15.9998 16 15.9998C13.9289 15.9998 12.25 17.6787 12.25 19.7497C12.25 21.8208 13.9289 23.4997 16 23.4997Z" fill="#0CB5C3"/>
<path d="M13.3324 7.62461C14.4028 8.61386 15.4639 9.27086 15.5085 9.29836C15.8099 9.48386 16.19 9.48386 16.4914 9.29836C16.5361 9.27086 17.5971 8.61386 18.6675 7.62461C20.2153 6.19423 21 4.80367 21 3.49161C21 0.511856 18.0369 -0.886832 16 0.768481C13.9586 -0.890519 11 0.519731 11 3.49161C11 4.80367 11.7847 6.19423 13.3324 7.62461Z" fill="#0CB5C3"/>
</g>
<defs>
<clipPath id="clip0_1_40318">
<rect width="32" height="32" fill="white"/>
</clipPath>
</defs>
</svg>
