<svg width="32" height="32" viewBox="0 0 32 32" fill="none" xmlns="http://www.w3.org/2000/svg">
<path d="M21.625 7.5H27.6382L20.6875 0.549316V6.5625C20.6875 7.07975 21.1077 7.5 21.625 7.5Z" fill="#0CB5C3"/>
<path d="M6.625 32H25.375C26.9259 32 28.1875 30.7384 28.1875 29.1875V9.375H21.625C20.0741 9.375 18.8125 8.11337 18.8125 6.5625V0H6.625C5.07413 0 3.8125 1.26163 3.8125 2.8125V29.1875C3.8125 30.7384 5.07413 32 6.625 32ZM12.25 15.0625H21.625C22.1432 15.0625 22.5625 15.4818 22.5625 16C22.5625 16.5182 22.1432 16.9375 21.625 16.9375H12.25C11.7318 16.9375 11.3125 16.5182 11.3125 16C11.3125 15.4818 11.7318 15.0625 12.25 15.0625ZM12.25 18.8125H21.625C22.1432 18.8125 22.5625 19.2318 22.5625 19.75C22.5625 20.2682 22.1432 20.6875 21.625 20.6875H12.25C11.7318 20.6875 11.3125 20.2682 11.3125 19.75C11.3125 19.2318 11.7318 18.8125 12.25 18.8125ZM12.25 22.5625H21.625C22.1432 22.5625 22.5625 22.9818 22.5625 23.5C22.5625 24.0182 22.1432 24.4375 21.625 24.4375H12.25C11.7318 24.4375 11.3125 24.0182 11.3125 23.5C11.3125 22.9818 11.7318 22.5625 12.25 22.5625ZM8.5 15.0625C9.01775 15.0625 9.4375 15.4823 9.4375 16C9.4375 16.5177 9.01775 16.9375 8.5 16.9375C7.98225 16.9375 7.5625 16.5177 7.5625 16C7.5625 15.4823 7.98225 15.0625 8.5 15.0625ZM8.5 18.8125C9.01775 18.8125 9.4375 19.2323 9.4375 19.75C9.4375 20.2677 9.01775 20.6875 8.5 20.6875C7.98225 20.6875 7.5625 20.2677 7.5625 19.75C7.5625 19.2323 7.98225 18.8125 8.5 18.8125ZM8.5 22.5625C9.01775 22.5625 9.4375 22.9823 9.4375 23.5C9.4375 24.0177 9.01775 24.4375 8.5 24.4375C7.98225 24.4375 7.5625 24.0177 7.5625 23.5C7.5625 22.9823 7.98225 22.5625 8.5 22.5625Z" fill="#0CB5C3"/>
</svg>
