<svg width="32" height="32" viewBox="0 0 32 32" fill="none" xmlns="http://www.w3.org/2000/svg">
<path d="M13.7225 18.3917L14.1925 17.8635C13.8491 16.7661 13.8482 15.5579 14.215 14.4423C11.5138 15.9263 8.09394 15.335 6.0525 12.9204C4.53625 14.1229 3.5625 15.981 3.5625 18.0623V27.4373C3.5625 27.9548 3.9825 28.3748 4.5 28.3748H12.2238C12.1194 28.0817 12.0625 27.766 12.0625 27.4373V22.7498C12.0625 21.1423 12.6519 19.5942 13.7225 18.3917Z" fill="#0CB5C3"/>
<path d="M10.9375 13.375C13.5263 13.375 15.625 11.2763 15.625 8.68749C15.625 6.09866 13.5263 4 10.9375 4C8.34867 4 6.25 6.09866 6.25 8.68749C6.25 11.2763 8.34867 13.375 10.9375 13.375Z" fill="#0CB5C3"/>
<path d="M19.8125 21.8121C18.01 21.8121 16.4031 20.9602 15.3731 19.6377C14.6356 20.4664 14.1875 21.5564 14.1875 22.7496V27.4371C14.1875 27.9546 14.6075 28.3746 15.125 28.3746H24.5C25.0175 28.3746 25.4375 27.9546 25.4375 27.4371V22.7496C25.4375 21.5564 24.9894 20.4664 24.2519 19.6377C23.2219 20.9602 21.615 21.8121 19.8125 21.8121Z" fill="#0CB5C3"/>
<path d="M19.8125 19.9375C21.8836 19.9375 23.5625 18.2586 23.5625 16.1875C23.5625 14.1164 21.8836 12.4375 19.8125 12.4375C17.7414 12.4375 16.0625 14.1164 16.0625 16.1875C16.0625 18.2586 17.7414 19.9375 19.8125 19.9375Z" fill="#0CB5C3"/>
</svg>
