<svg width="32" height="32" viewBox="0 0 32 32" fill="none" xmlns="http://www.w3.org/2000/svg">
<g clip-path="url(#clip0_1_40294)">
<path d="M17.4562 0.606152C16.6562 -0.200098 15.3499 -0.200098 14.5437 0.606152C11.2624 3.91865 3.55615 12.4374 3.55615 19.5562C3.55615 26.4312 9.1249 31.9999 15.9999 31.9999C22.8749 31.9999 28.4437 26.4312 28.4437 19.5562C28.4437 12.4374 20.7374 3.91865 17.4562 0.606152ZM21.0312 21.6312H18.0749V24.5874C18.0749 25.7312 17.1437 26.6624 15.9999 26.6624C14.8562 26.6624 13.9249 25.7312 13.9249 24.5874V21.6312H10.9687C9.8249 21.6312 8.89365 20.6999 8.89365 19.5562C8.89365 18.4124 9.8249 17.4812 10.9687 17.4812H13.9249V14.5249C13.9249 13.3812 14.8562 12.4499 15.9999 12.4499C17.1437 12.4499 18.0749 13.3812 18.0749 14.5249V17.4812H21.0312C22.1749 17.4812 23.1062 18.4124 23.1062 19.5562C23.1062 20.6999 22.1812 21.6312 21.0312 21.6312Z" fill="#0CB5C3"/>
</g>
<defs>
<clipPath id="clip0_1_40294">
<rect width="32" height="32" fill="white"/>
</clipPath>
</defs>
</svg>
