<svg width="8" height="8" viewBox="0 0 8 8" fill="none" xmlns="http://www.w3.org/2000/svg">
<g clip-path="url(#clip0)">
<path d="M3.27652 6.55301C3.95109 6.55301 4.57427 6.34743 5.09465 6.00051L6.97702 7.88288C7.12484 8.03064 7.36897 8.03064 7.5231 7.88288L7.88929 7.51668C8.03705 7.36892 8.03705 7.12479 7.88929 6.9706L6.0005 5.09466C6.34735 4.57428 6.553 3.95111 6.553 3.27654C6.553 1.47126 5.0818 6.10352e-05 3.27652 6.10352e-05C1.47125 6.10352e-05 4.57764e-05 1.47126 4.57764e-05 3.27654C4.57764e-05 5.08175 1.46482 6.55301 3.27652 6.55301ZM3.27652 1.28495C4.37511 1.28495 5.26811 2.17795 5.26811 3.27654C5.26811 4.37512 4.37511 5.26812 3.27652 5.26812C2.17794 5.26812 1.28494 4.37512 1.28494 3.27654C1.28494 2.17795 2.17794 1.28495 3.27652 1.28495Z" fill="#FBFCFE"/>
</g>
<defs>
<clipPath id="clip0">
<rect width="8" height="8" fill="white"/>
</clipPath>
</defs>
</svg>
