<svg width="98" height="80" viewBox="0 0 98 80" fill="none" xmlns="http://www.w3.org/2000/svg">
<g clip-path="url(#clip0)">
<path d="M93.7161 19.8452C93.2627 18.1829 91.5419 17.1885 89.8699 17.6369L89.8211 17.6516C88.1491 18.1 87.1546 19.8208 87.6031 21.4978L87.9346 22.5897C88.0126 22.8432 87.7103 23.0431 87.5105 22.8773L86.7208 22.229C86.555 22.0876 86.3941 21.9462 86.2284 21.8C85.1657 20.8689 83.791 20.2401 82.5674 19.9232L82.548 19.9183C81.2415 19.543 79.7645 19.5722 78.1753 19.9963C77.2929 20.2352 76.474 20.5472 75.733 20.9372L74.9189 21.3661L70.6973 5.61573C70.1709 3.65119 68.1478 2.48124 66.1833 3.00772L45.3631 8.58447L45.5435 7.74601C45.6264 7.34627 45.6702 6.93679 45.6605 6.51756C45.6459 5.96671 45.563 5.39149 45.407 4.80651C44.9049 2.94435 43.9348 1.62328 42.448 0.784821C40.9515 -0.0585155 39.2843 -0.219383 37.3587 0.297343C36.686 0.47771 36.0815 0.7117 35.5599 0.994437C35.0383 1.2723 34.5704 1.60866 34.1706 1.97914C33.7709 2.34475 33.4248 2.77861 33.1421 3.26121C32.2548 4.71389 32.0696 6.32257 32.5717 8.19449C32.7033 8.67709 32.9032 9.17919 33.1713 9.68617C33.415 10.0762 33.7075 10.4613 34.0439 10.8415L34.5996 11.4703L13.6868 17.0666C11.7223 17.5931 10.5523 19.6161 11.0788 21.5806L19.0929 51.4874C18.9857 51.7214 18.8687 51.9456 18.742 52.1699C18.3373 52.8621 17.8352 53.4861 17.2259 54.0125C16.6068 54.5195 15.9195 54.8705 15.1639 55.0752C13.5601 55.5042 12.1708 55.3385 11.0008 54.578C9.81136 53.8565 8.98752 52.6573 8.54392 50.9999C8.08081 49.2645 8.03694 47.8362 8.51954 46.5395C8.80228 45.7888 9.3385 44.8431 9.9966 44.6188C10.4743 44.4628 11.0154 44.38 11.5273 44.4092C13.4382 44.5213 13.1067 42.1766 12.6192 41.0066C12.3365 40.3242 11.4834 39.1688 10.5718 38.7837C10.1038 38.5839 8.69991 38.3499 7.2326 39.0031C4.24923 40.3339 3.05979 42.006 1.95321 43.8632C0.364035 46.5297 0.125171 49.6301 1.0465 53.0522C1.36824 54.2416 1.77772 55.3043 2.27982 56.2452C2.7868 57.186 3.37665 58.0245 4.05912 58.7654C4.74159 59.5015 5.5313 60.1401 6.42339 60.6666C9.04602 62.2655 12.0343 62.6165 15.3881 61.7196C16.2802 61.4807 17.182 61.1151 18.1082 60.6227C18.7371 60.223 19.3562 59.7745 19.9509 59.2675C20.3506 58.9312 20.6236 58.5217 20.8674 58.083L25.1572 74.0869C25.6836 76.0514 27.7067 77.2214 29.6712 76.6949L50.6474 71.0743L50.3988 72.254C50.3159 72.6537 50.272 73.0632 50.2818 73.4824C50.2964 74.0333 50.3793 74.6085 50.5353 75.1935C51.0374 77.0556 52.0075 78.3718 53.4943 79.2151C54.9908 80.0585 56.658 80.2193 58.5787 79.7026C59.2514 79.5223 59.8558 79.2883 60.3774 79.0055C60.899 78.7277 61.367 78.3913 61.7668 78.0208C62.1665 77.6552 62.5126 77.2214 62.7953 76.7388C63.6825 75.2861 63.8678 73.6774 63.3657 71.8055C63.2341 71.3229 63.0342 70.8208 62.7661 70.3138C62.5223 69.9238 62.2299 69.5387 61.8935 69.1585L61.1087 68.2664L82.1726 62.6214C84.1371 62.09 85.3071 60.0719 84.7806 58.1025L80.9295 43.7755L81.8265 43.717C82.4943 43.6683 83.1865 43.5561 83.8836 43.3709C85.5313 42.9322 86.8865 42.1961 87.92 41.187C88.9583 40.173 89.6602 38.9397 90.5816 37.3457L91.1666 36.3073C91.2787 36.1075 91.5809 36.1465 91.6394 36.3658L91.7905 36.9362C92.2341 38.6034 93.9257 39.6856 95.6026 39.2663C97.3088 38.8422 98.3276 37.1019 97.8791 35.4104L93.7161 19.8452ZM36.5008 25.8851C38.5823 25.3391 40.7175 26.5822 41.2634 28.6637C41.8094 30.7452 40.5663 32.8804 38.4848 33.4263C36.4033 33.9723 34.2681 32.7292 33.7222 30.6477C33.1713 28.5662 34.4192 26.431 36.5008 25.8851ZM61.2452 45.3793C61.1574 46.6614 60.7674 47.8996 60.0752 49.1036C59.4269 50.2931 58.4275 51.3265 57.0821 52.2089C55.8 53.0571 54.1816 53.7493 52.1976 54.2758C50.2379 54.7974 48.5025 55.0119 47.0011 54.9046C45.4606 54.8266 44.0518 54.4366 42.7697 53.7347C41.5998 53.0961 40.659 52.2284 39.9521 51.1267C39.2648 50.1127 38.5823 48.3432 37.9096 45.8229L37.154 43.1028C36.6129 41.0846 37.8121 39.0128 39.8302 38.4717L54.7909 34.4647L54.9616 34.4159C56.9797 33.8748 59.0515 35.074 59.5926 37.0922L60.3531 39.8074C61.016 42.2984 61.3134 44.1509 61.2452 45.3793ZM56.4533 26.4213C56.3363 26.5773 56.1754 26.6845 55.9999 26.7333C55.761 26.7966 55.4978 26.7576 55.2882 26.5968C54.5618 26.0606 53.6405 25.8851 52.7679 26.119L52.5973 26.1678C51.7247 26.4018 51.0179 27.0111 50.6523 27.8398C50.467 28.264 49.9747 28.4589 49.5554 28.2688C49.1313 28.0836 48.6536 27.1379 48.9071 26.3579C49.3409 25.0076 50.5791 24.1009 51.949 23.7353L52.1196 23.6865C53.4894 23.3209 54.8933 23.6378 56.0633 24.4372C56.7604 24.915 56.7311 26.0508 56.4533 26.4213ZM87.6811 34.0503C87.0376 35.2398 85.9505 36.0343 84.4247 36.4438C82.8843 36.8582 81.5584 36.7022 80.442 35.9905C79.277 35.2739 78.4775 34.0698 78.0193 32.3929C77.5757 30.7257 77.6683 29.2779 78.3069 28.0446C78.9211 26.8503 79.9984 26.0459 81.5242 25.6364C83.05 25.227 84.4004 25.3976 85.5654 26.1434C86.7061 26.8405 87.5056 28.03 87.9589 29.7264C88.4221 31.4228 88.3246 32.8609 87.6811 34.0503Z" fill="#0CB5C3"/>
</g>
<defs>
<clipPath id="clip0">
<rect width="97.4956" height="80" fill="white" transform="translate(0.495605)"/>
</clipPath>
</defs>
</svg>
