<svg width="98" height="80" viewBox="0 0 98 80" fill="none" xmlns="http://www.w3.org/2000/svg">
<g clip-path="url(#clip0)">
<path d="M93.7072 19.8452C93.2539 18.1829 91.5331 17.1885 89.861 17.6369L89.8123 17.6516C88.1403 18.1 87.1458 19.8208 87.5943 21.4978L87.9258 22.5897C88.0037 22.8432 87.7015 23.0431 87.5016 22.8773L86.7119 22.229C86.5462 22.0876 86.3853 21.9462 86.2196 21.8C85.1569 20.8689 83.7822 20.2401 82.5586 19.9232L82.5391 19.9183C81.2327 19.543 79.7556 19.5722 78.1665 19.9963C77.2841 20.2352 76.4651 20.5472 75.7242 20.9372L74.9101 21.3661L70.6885 5.61573C70.1621 3.65119 68.139 2.48124 66.1745 3.00772L45.3543 8.58447L45.5347 7.74601C45.6175 7.34627 45.6614 6.93679 45.6517 6.51756C45.637 5.96671 45.5542 5.39149 45.3982 4.80651C44.8961 2.94435 43.926 1.62328 42.4392 0.784821C40.9426 -0.0585155 39.2755 -0.219383 37.3499 0.297343C36.6772 0.47771 36.0727 0.7117 35.5511 0.994437C35.0295 1.2723 34.5615 1.60866 34.1618 1.97914C33.7621 2.34475 33.416 2.77861 33.1332 3.26121C32.246 4.71389 32.0608 6.32257 32.5629 8.19449C32.6945 8.67709 32.8944 9.17919 33.1625 9.68617C33.4062 10.0762 33.6987 10.4613 34.0351 10.8415L34.5908 11.4703L13.678 17.0666C11.7135 17.5931 10.5435 19.6161 11.07 21.5806L19.0841 51.4874C18.9769 51.7214 18.8599 51.9456 18.7331 52.1699C18.3285 52.8621 17.8264 53.4861 17.2171 54.0125C16.598 54.5195 15.9106 54.8705 15.155 55.0752C13.5512 55.5042 12.1619 55.3385 10.992 54.578C9.80254 53.8565 8.9787 52.6573 8.5351 50.9999C8.07199 49.2645 8.02812 47.8362 8.51072 46.5395C8.79346 45.7888 9.32969 44.8431 9.98778 44.6188C10.4655 44.4628 11.0066 44.38 11.5185 44.4092C13.4294 44.5213 13.0979 42.1766 12.6104 41.0066C12.3277 40.3242 11.4746 39.1688 10.563 38.7837C10.095 38.5839 8.69109 38.3499 7.22378 39.0031C4.24042 40.3339 3.05097 42.006 1.94439 43.8632C0.355216 46.5297 0.116352 49.6301 1.03769 53.0522C1.35942 54.2416 1.7689 55.3043 2.271 56.2452C2.77798 57.186 3.36783 58.0245 4.0503 58.7654C4.73277 59.5015 5.52248 60.1401 6.41457 60.6666C9.0372 62.2655 12.0254 62.6165 15.3793 61.7196C16.2714 61.4807 17.1732 61.1151 18.0994 60.6227C18.7283 60.223 19.3474 59.7745 19.9421 59.2675C20.3418 58.9312 20.6148 58.5217 20.8585 58.083L25.1483 74.0869C25.6748 76.0514 27.6979 77.2214 29.6624 76.6949L50.6386 71.0743L50.39 72.254C50.3071 72.6537 50.2632 73.0632 50.273 73.4824C50.2876 74.0333 50.3705 74.6085 50.5264 75.1935C51.0285 77.0556 51.9986 78.3718 53.4854 79.2151C54.982 80.0585 56.6492 80.2193 58.5698 79.7026C59.2426 79.5223 59.847 79.2883 60.3686 79.0055C60.8902 78.7277 61.3582 78.3913 61.7579 78.0208C62.1577 77.6552 62.5038 77.2214 62.7865 76.7388C63.6737 75.2861 63.859 73.6774 63.3569 71.8055C63.2252 71.3229 63.0254 70.8208 62.7573 70.3138C62.5135 69.9238 62.221 69.5387 61.8847 69.1585L61.0998 68.2664L82.1638 62.6214C84.1283 62.09 85.2982 60.0719 84.7718 58.1025L80.9207 43.7755L81.8177 43.717C82.4855 43.6683 83.1777 43.5561 83.8748 43.3709C85.5225 42.9322 86.8777 42.1961 87.9111 41.187C88.9495 40.173 89.6514 38.9397 90.5728 37.3457L91.1577 36.3073C91.2699 36.1075 91.5721 36.1465 91.6306 36.3658L91.7817 36.9362C92.2253 38.6034 93.9169 39.6856 95.5938 39.2663C97.3 38.8422 98.3188 37.1019 97.8703 35.4104L93.7072 19.8452ZM49.0981 28.7076C48.1671 28.1665 47.8551 26.9721 48.3962 26.041C48.9373 25.11 50.1316 24.798 51.0627 25.3391L52.7445 26.3238L53.7292 24.642C54.2703 23.7109 55.4646 23.3989 56.3957 23.94C57.3268 24.4811 57.6387 25.6754 57.0976 26.6065L56.1129 28.2883L57.7947 29.273C58.7258 29.8141 59.0378 31.0084 58.4967 31.9395C58.2237 32.4026 57.7899 32.7146 57.3073 32.8414C56.8247 32.9681 56.2933 32.9096 55.8302 32.6415L54.1484 31.6568L53.1637 33.3386C52.8907 33.8017 52.4569 34.1137 51.9743 34.2404C51.4917 34.3672 50.9603 34.3087 50.4972 34.0406C49.5661 33.4995 49.2541 32.3051 49.7952 31.3741L50.7799 29.6923L49.0981 28.7076ZM33.9961 32.6756C33.065 32.1345 32.753 30.9402 33.2941 30.0091C33.8352 29.078 35.0295 28.7661 35.9606 29.3072L37.6424 30.2919L38.6271 28.6101C39.1682 27.679 40.3625 27.367 41.2936 27.9081C42.2247 28.4492 42.5367 29.6435 41.9956 30.5746L41.0109 32.2564L42.6927 33.2411C43.6238 33.7822 43.9357 34.9765 43.3946 35.9076C43.1217 36.3707 42.6878 36.6827 42.2052 36.8094C41.7226 36.9362 41.1912 36.8777 40.7281 36.6096L39.0463 35.6249L38.0616 37.3067C37.7887 37.7698 37.3548 38.0818 36.8722 38.2085C36.3896 38.3352 35.8582 38.2767 35.3951 38.0086C34.464 37.4675 34.1521 36.2732 34.6932 35.3421L35.6779 33.6603L33.9961 32.6756ZM64.6779 46.9782L36.3896 54.4123C34.8297 54.8217 33.2259 53.8907 32.8164 52.3259C32.4069 50.7611 33.338 49.1621 34.9028 48.7526L63.1911 41.3186C64.7511 40.9091 66.3549 41.8402 66.7643 43.405C67.1738 44.9698 66.2379 46.5687 64.6779 46.9782ZM87.6723 34.0503C87.0288 35.2398 85.9417 36.0343 84.4159 36.4438C82.8755 36.8582 81.5495 36.7022 80.4332 35.9905C79.2682 35.2739 78.4687 34.0698 78.0105 32.3929C77.5668 30.7257 77.6595 29.2779 78.2981 28.0446C78.9123 26.8503 79.9896 26.0459 81.5154 25.6364C83.0412 25.227 84.3915 25.3976 85.5566 26.1434C86.6973 26.8405 87.4968 28.03 87.9501 29.7264C88.4132 31.4228 88.3157 32.8609 87.6723 34.0503Z" fill="#0CB5C3"/>
</g>
<defs>
<clipPath id="clip0">
<rect width="97.4956" height="80" fill="white" transform="translate(0.486816)"/>
</clipPath>
</defs>
</svg>
