<svg width="99" height="80" viewBox="0 0 99 80" fill="none" xmlns="http://www.w3.org/2000/svg">
<g clip-path="url(#clip0)">
<path d="M94.2117 19.8452C93.7583 18.1829 92.0375 17.1885 90.3655 17.6369L90.3167 17.6516C88.6447 18.1 87.6502 19.8208 88.0987 21.4978L88.4302 22.5897C88.5082 22.8432 88.2059 23.0431 88.0061 22.8773L87.2164 22.229C87.0506 22.0876 86.8897 21.9462 86.724 21.8C85.6613 20.8689 84.2866 20.2401 83.063 19.9232L83.0436 19.9183C81.7371 19.543 80.2601 19.5722 78.6709 19.9963C77.7885 20.2352 76.9696 20.5472 76.2286 20.9372L75.4145 21.3661L71.193 5.61573C70.6665 3.65119 68.6434 2.48124 66.6789 3.00772L45.8587 8.58447L46.0391 7.74601C46.122 7.34627 46.1658 6.93679 46.1561 6.51756C46.1415 5.96671 46.0586 5.39149 45.9026 4.80651C45.4005 2.94435 44.4304 1.62328 42.9436 0.784821C41.4471 -0.0585155 39.7799 -0.219383 37.8543 0.297343C37.1816 0.47771 36.5772 0.7117 36.0555 0.994437C35.5339 1.2723 35.066 1.60866 34.6662 1.97914C34.2665 2.34475 33.9204 2.77861 33.6377 3.26121C32.7504 4.71389 32.5652 6.32257 33.0673 8.19449C33.1989 8.67709 33.3988 9.17919 33.6669 9.68617C33.9106 10.0762 34.2031 10.4613 34.5395 10.8415L35.0952 11.4703L14.1824 17.0666C12.2179 17.5931 11.0479 19.6161 11.5744 21.5806L19.5885 51.4874C19.4813 51.7214 19.3643 51.9456 19.2376 52.1699C18.833 52.8621 18.3309 53.4861 17.7215 54.0125C17.1024 54.5195 16.4151 54.8705 15.6595 55.0752C14.0557 55.5042 12.6664 55.3385 11.4964 54.578C10.307 53.8565 9.48313 52.6573 9.03952 50.9999C8.57642 49.2645 8.53254 47.8362 9.01515 46.5395C9.29788 45.7888 9.83411 44.8431 10.4922 44.6188C10.9699 44.4628 11.511 44.38 12.0229 44.4092C13.9338 44.5213 13.6023 42.1766 13.1148 41.0066C12.8321 40.3242 11.979 39.1688 11.0674 38.7837C10.5995 38.5839 9.19551 38.3499 7.72821 39.0031C4.74484 40.3339 3.55539 42.006 2.44882 43.8632C0.859641 46.5297 0.620777 49.6301 1.54211 53.0522C1.86385 54.2416 2.27333 55.3043 2.77543 56.2452C3.28241 57.186 3.87225 58.0245 4.55472 58.7654C5.23719 59.5015 6.02691 60.1401 6.91899 60.6666C9.54162 62.2655 12.5299 62.6165 15.8837 61.7196C16.7758 61.4807 17.6776 61.1151 18.6038 60.6227C19.2327 60.223 19.8518 59.7745 20.4465 59.2675C20.8462 58.9312 21.1192 58.5217 21.363 58.083L25.6528 74.0869C26.1792 76.0514 28.2023 77.2214 30.1668 76.6949L51.143 71.0743L50.8944 72.254C50.8115 72.6537 50.7676 73.0632 50.7774 73.4824C50.792 74.0333 50.8749 74.6085 51.0309 75.1935C51.533 77.0556 52.5031 78.3718 53.9899 79.2151C55.4864 80.0585 57.1536 80.2193 59.0743 79.7026C59.747 79.5223 60.3514 79.2883 60.8731 79.0055C61.3947 78.7277 61.8626 78.3913 62.2624 78.0208C62.6621 77.6552 63.0082 77.2214 63.2909 76.7388C64.1782 75.2861 64.3634 73.6774 63.8613 71.8055C63.7297 71.3229 63.5298 70.8208 63.2617 70.3138C63.018 69.9238 62.7255 69.5387 62.3891 69.1585L61.6043 68.2664L82.6682 62.6214C84.6327 62.09 85.8027 60.0719 85.2762 58.1025L81.4251 43.7755L82.3221 43.717C82.9899 43.6683 83.6821 43.5561 84.3792 43.3709C86.0269 42.9322 87.3821 42.1961 88.4156 41.187C89.4539 40.173 90.1559 38.9397 91.0772 37.3457L91.6622 36.3073C91.7743 36.1075 92.0765 36.1465 92.135 36.3658L92.2861 36.9362C92.7297 38.6034 94.4213 39.6856 96.0982 39.2663C97.8044 38.8422 98.8232 37.1019 98.3747 35.4104L94.2117 19.8452ZM49.9438 27.1379C50.0608 26.9819 50.2217 26.8746 50.3971 26.8259C50.636 26.7625 50.8993 26.8015 51.1089 26.9624C51.8352 27.4986 52.7565 27.6741 53.6291 27.4401C54.5017 27.2061 55.2086 26.5968 55.5742 25.7681C55.7594 25.344 56.2518 25.149 56.671 25.3391C57.0951 25.5194 57.6508 26.4993 57.3193 27.25C56.749 28.5467 55.6473 29.507 54.2775 29.8726C52.9077 30.2382 51.4306 30.014 50.3338 29.1219C49.7683 28.6539 49.6659 27.5084 49.9438 27.1379ZM34.8174 31.1839C34.9343 31.028 35.0952 30.9207 35.2707 30.872C35.5096 30.8086 35.7728 30.8476 35.9824 31.0085C36.7088 31.5447 37.6301 31.7202 38.5027 31.4862L38.6733 31.4374C39.5459 31.2034 40.2527 30.5941 40.6183 29.7654C40.8036 29.3413 41.2959 29.1463 41.7152 29.3364C42.1393 29.5216 42.617 30.4674 42.3635 31.2473C41.9297 32.5976 40.6915 33.5043 39.3217 33.8699L39.151 33.9187C37.7812 34.2843 36.3773 33.9674 35.2073 33.168C34.5102 32.6903 34.5444 31.5544 34.8174 31.1839ZM67.2541 45.3013C66.5229 46.7442 64.7631 47.3146 63.3202 46.5834L56.9147 43.3319L52.9369 49.3132C52.1131 50.5466 50.4995 50.9707 49.1785 50.3028L42.773 47.0513L38.7903 53.0327C38.3759 53.6518 37.7666 54.0662 37.0988 54.2416C36.3188 54.4464 35.456 54.3294 34.7345 53.8468C33.389 52.9498 33.0234 51.1364 33.9204 49.791L39.3411 41.6452C40.165 40.4119 41.7785 39.9878 43.0996 40.6556L49.5051 43.9071L53.4829 37.9258C54.3067 36.6924 55.9203 36.2683 57.2413 36.9362L65.9623 41.3625C67.4101 42.1034 67.9854 43.8632 67.2541 45.3013ZM88.1767 34.0503C87.5332 35.2398 86.4461 36.0343 84.9203 36.4438C83.3799 36.8582 82.054 36.7022 80.9376 35.9905C79.7726 35.2739 78.9731 34.0698 78.5149 32.3929C78.0713 30.7257 78.1639 29.2779 78.8025 28.0446C79.4167 26.8503 80.494 26.0459 82.0198 25.6364C83.5457 25.227 84.896 25.3976 86.061 26.1434C87.2017 26.8405 88.0012 28.03 88.4546 29.7264C88.9177 31.4228 88.8202 32.8609 88.1767 34.0503Z" fill="#0CB5C3"/>
</g>
<defs>
<clipPath id="clip0">
<rect width="97.4956" height="80" fill="white" transform="translate(0.991211)"/>
</clipPath>
</defs>
</svg>
