<svg width="98" height="80" viewBox="0 0 98 80" fill="none" xmlns="http://www.w3.org/2000/svg">
<g clip-path="url(#clip0)">
<path d="M93.2079 19.8494C92.7564 18.1937 91.0254 17.1965 89.3697 17.6481L89.3133 17.6669C87.6388 18.1185 86.6416 19.8306 87.0932 21.5051L87.4318 22.5963C87.5071 22.8409 87.2061 23.0479 86.9991 22.8786L86.2089 22.2389C86.0395 22.0884 85.889 21.9566 85.7197 21.8061C84.6661 20.8842 83.2738 20.2445 82.0508 19.9247H82.032C80.7338 19.5484 79.2474 19.586 77.667 19.9999C76.7827 20.2445 75.9737 20.5455 75.2211 20.9407L74.4121 21.3734L70.1976 5.62551C69.6708 3.66879 67.6388 2.48346 65.6821 3.01027L44.8542 8.57942L45.0424 7.73276C45.1176 7.33765 45.1552 6.94254 45.1552 6.5098C45.1364 5.96418 45.0612 5.38092 44.9107 4.79767C44.4027 2.93501 43.4431 1.61799 41.9568 0.771326C40.4516 -0.0753347 38.7959 -0.225852 36.858 0.282144C36.1806 0.470291 35.5786 0.696067 35.0518 0.978287C34.525 1.26051 34.0546 1.59917 33.6595 1.95665C33.2644 2.31413 32.9069 2.74687 32.6247 3.23605C31.7404 4.68478 31.5522 6.30284 32.0602 8.16549C32.1919 8.65467 32.3989 9.14386 32.6623 9.65185C32.9069 10.047 33.2079 10.4233 33.5278 10.7995L34.0922 11.4204L13.1703 17.0648C11.2136 17.5916 10.0282 19.6236 10.5551 21.5804L18.5701 51.4957C18.4572 51.7215 18.3443 51.9472 18.2126 52.173C17.7987 52.8692 17.3095 53.49 16.6886 54.0169C16.0678 54.5248 15.3904 54.8823 14.619 55.0705C13.0198 55.5032 11.6275 55.3339 10.461 54.5813C9.27566 53.8663 8.44782 52.6622 7.99626 51.0065C7.56353 49.2567 7.5259 47.8268 8.01508 46.5474C8.2973 45.7948 8.84293 44.8541 9.50144 44.6283C9.97181 44.4778 10.5174 44.3837 11.0254 44.4214C12.9445 44.5343 12.6059 42.1824 12.1167 41.0159C11.8345 40.3386 10.9878 39.1721 10.0659 38.7958C9.59551 38.5888 8.20323 38.363 6.73568 39.0216C3.74415 40.3574 2.55882 42.0319 1.44876 43.8757C-0.131675 46.5474 -0.376266 49.6519 0.545653 53.0573C0.865503 54.2426 1.27943 55.3151 1.78742 56.2558C2.29542 57.1965 2.87867 58.0432 3.57482 58.777C4.25214 59.5107 5.04236 60.1504 5.94547 60.6772C8.56071 62.2765 11.5522 62.634 14.9013 61.7309C15.7855 61.4863 16.6886 61.1288 17.6294 60.6396C18.2503 60.2445 18.8711 59.793 19.4732 59.285C19.8683 58.9463 20.1505 58.5324 20.3951 58.0996L24.6849 74.1109C25.2117 76.0676 27.2437 77.253 29.2004 76.7262L50.1788 71.1006L49.9342 72.2859C49.8589 72.681 49.8025 73.0949 49.8213 73.5089C49.8401 74.0545 49.9154 74.6377 50.0659 75.221C50.5739 77.0836 51.5334 78.4007 53.0198 79.2473C54.525 80.094 56.1806 80.2445 58.0997 79.7365C58.7771 79.5484 59.3791 79.3226 59.906 79.0404C60.4328 78.7581 60.9031 78.4195 61.2982 78.062C61.6934 77.7045 62.0508 77.2718 62.3331 76.7826C63.2173 75.3339 63.4055 73.7158 62.8975 71.8532C62.7658 71.364 62.5588 70.8748 62.2954 70.3668C62.0508 69.9717 61.7498 69.5954 61.43 69.2191L60.6397 68.3348L81.7122 62.6904C83.6689 62.1636 84.8542 60.1316 84.3274 58.1749L80.4704 43.8381L81.3735 43.7817C82.032 43.7252 82.7282 43.6123 83.4243 43.443C85.08 43.0103 86.4347 42.2765 87.4695 41.2605C88.5043 40.2445 89.2004 39.0216 90.1223 37.4223L90.7056 36.3875C90.8185 36.1805 91.1195 36.2182 91.1759 36.444L91.3265 37.0084C91.778 38.6829 93.4525 39.7553 95.1458 39.3414C96.858 38.9087 97.874 37.1777 97.4224 35.4844L93.2079 19.8494ZM60.7338 45.3809C60.6397 46.6603 60.2634 47.9021 59.5673 49.1062C58.9276 50.2915 57.9116 51.3264 56.5758 52.2106C55.2964 53.0573 53.6783 53.7534 51.6839 54.2803C49.7272 54.8071 47.9963 55.014 46.4911 54.9011C44.9483 54.8259 43.5372 54.4308 42.2578 53.7346C41.0913 53.0949 40.1505 52.2295 39.4356 51.1194C38.7394 50.1034 38.0621 48.3348 37.3848 45.8137L36.6322 43.0855C36.0866 41.0724 37.2907 39.0027 39.3039 38.4571L54.2616 34.4496L54.4309 34.3932C56.4441 33.8475 58.5137 35.0517 59.0593 37.0648L59.8119 39.7741C60.508 42.2953 60.8091 44.158 60.7338 45.3809ZM87.1684 34.0545C86.5287 35.2398 85.4375 36.03 83.9135 36.444C82.3707 36.8579 81.0536 36.7074 79.9248 35.9924C78.7583 35.2774 77.968 34.0733 77.4977 32.3988C77.0461 30.7243 77.1402 29.2756 77.7799 28.0526C78.4008 26.8673 79.4732 26.0582 80.9972 25.6443C82.5212 25.2304 83.8759 25.3997 85.0424 26.1523C86.1901 26.8485 86.9803 28.0338 87.4318 29.7271C87.921 31.4204 87.8269 32.8692 87.1684 34.0545ZM30.8749 36.5757C30.8373 35.8231 30.7808 34.9952 30.7432 34.1486C30.7244 33.6406 30.7056 33.1326 30.6491 32.6434C30.6303 32.5305 30.5174 32.38 30.4045 32.3047C29.3321 31.6462 28.2597 31.0065 27.1872 30.348C26.7733 30.1034 26.6228 29.633 26.8674 29.2944C26.9991 29.1062 27.2249 28.9745 27.4318 28.8804C28.5607 28.4289 29.7084 27.9773 30.8373 27.5446C31.0254 27.4693 31.1007 27.3565 31.1383 27.1871C31.4205 25.983 31.7028 24.7977 31.985 23.5935C32.0602 23.236 32.2108 22.9726 32.6059 22.8974C32.9633 22.8221 33.2267 22.9915 33.4337 23.2549C34.2239 24.2144 35.0141 25.174 35.7855 26.1523C35.8984 26.284 35.9925 26.3405 36.1995 26.3405C37.4224 26.2276 38.6454 26.1335 39.8871 26.0394C40.2446 26.0018 40.5645 26.0394 40.7714 26.3593C40.9596 26.6791 40.9031 26.9802 40.6962 27.3C40.0188 28.3348 39.3603 29.3696 38.683 30.4044C38.5701 30.5738 38.5325 30.7055 38.6266 30.8936C39.1157 32.0601 39.5861 33.2266 40.0941 34.3743C40.2258 34.6942 40.207 34.9764 40 35.221C39.7743 35.4844 39.492 35.522 39.1722 35.4468C38.0057 35.1269 36.8203 34.8259 35.6538 34.506C35.3528 34.4308 35.1458 34.4496 34.9201 34.6754C34.017 35.4844 33.095 36.2746 32.1731 37.046C31.6651 37.4788 31.0066 37.2718 30.8749 36.5757ZM50.7244 31.2135C50.6868 30.4609 50.6303 29.633 50.5927 28.7864C50.5739 28.2784 50.5551 27.7704 50.4986 27.2812C50.4798 27.1683 50.3669 27.0178 50.254 26.9425C49.1816 26.284 48.1092 25.6443 47.0367 24.9858C46.6228 24.7412 46.4723 24.2709 46.7169 23.9322C46.8486 23.744 47.0743 23.6123 47.2813 23.5183C48.4102 23.0667 49.5579 22.6152 50.6868 22.1824C50.8749 22.1072 50.9502 21.9943 50.9878 21.8249C51.27 20.6208 51.5522 19.4355 51.8345 18.2313C51.9097 17.8739 52.0602 17.6105 52.4553 17.5352C52.8128 17.4599 53.0762 17.6293 53.2832 17.8927C54.0734 18.8522 54.8636 19.8118 55.635 20.7901C55.7479 20.9218 55.842 20.9783 56.0489 20.9783C57.2719 20.8654 58.4949 20.7713 59.7366 20.6772C60.0941 20.6396 60.414 20.6772 60.6209 20.9971C60.8091 21.3169 60.7526 21.618 60.5457 21.9378C59.8683 22.9726 59.2098 24.0075 58.5325 25.0423C58.4196 25.2116 58.382 25.3433 58.476 25.5314C58.9652 26.6979 59.4356 27.8645 59.9436 29.0122C60.0753 29.332 60.0565 29.6142 59.8495 29.8588C59.6237 30.1222 59.3415 30.1598 59.0217 30.0846C57.8552 29.7647 56.6698 29.4637 55.5033 29.1439C55.2023 29.0686 54.9953 29.0874 54.7695 29.3132C53.8664 30.1222 52.9445 30.9124 52.0226 31.6838C51.5146 32.1354 50.8749 31.9284 50.7244 31.2135Z" fill="#0CB5C3"/>
</g>
<defs>
<clipPath id="clip0">
<rect width="97.4788" height="80" fill="white"/>
</clipPath>
</defs>
</svg>
