<svg width="98" height="80" viewBox="0 0 98 80" fill="none" xmlns="http://www.w3.org/2000/svg">
<g clip-path="url(#clip0)">
<path d="M97.366 35.4091L93.1891 19.8494C92.7376 18.1937 91.0254 17.1965 89.3509 17.6293L89.2945 17.6481C87.62 18.0996 86.6228 19.8118 87.0743 21.4863L87.413 22.5775C87.4883 22.8221 87.1872 23.0291 86.9803 22.8598L86.1901 22.2201C86.0207 22.0695 85.8702 21.9378 85.7009 21.7873C84.6473 20.8654 83.255 20.2257 82.032 19.9058H82.0132C80.715 19.5296 79.2286 19.5672 77.6482 19.9811C76.7639 20.2257 75.9549 20.5267 75.2023 20.9218L74.3933 21.3546L70.1788 5.6067C69.652 3.64997 67.62 2.46465 65.6633 2.99146L44.8542 8.57942L45.0424 7.73276C45.1176 7.33765 45.1552 6.94254 45.1552 6.5098C45.1364 5.96418 45.0612 5.38092 44.9107 4.79767C44.4027 2.93501 43.4431 1.61799 41.9568 0.771326C40.4516 -0.0753347 38.7959 -0.225852 36.858 0.282144C36.1806 0.470291 35.5786 0.696067 35.0518 0.978287C34.525 1.26051 34.0546 1.59917 33.6595 1.95665C33.2644 2.31413 32.9069 2.74687 32.6247 3.23605C31.7404 4.68478 31.5522 6.30284 32.0602 8.16549C32.1919 8.65467 32.3989 9.14386 32.6623 9.65185C32.9069 10.047 33.1891 10.4233 33.5278 10.7995L34.0922 11.4204L13.1703 17.0648C11.2136 17.5916 10.0282 19.6236 10.5551 21.5804L18.5701 51.4957C18.4572 51.7215 18.3443 51.9472 18.2126 52.173C17.7987 52.8692 17.3095 53.49 16.6886 54.0169C16.0678 54.5248 15.3904 54.8823 14.619 55.0705C13.0198 55.5032 11.6275 55.3339 10.461 54.5813C9.27566 53.8663 8.44782 52.6622 7.99626 51.0065C7.56353 49.2567 7.5259 47.8268 8.01508 46.5474C8.2973 45.7948 8.84293 44.8541 9.50144 44.6283C9.97181 44.4778 10.5174 44.3837 11.0254 44.4214C12.9445 44.5343 12.6059 42.1824 12.1167 41.0159C11.8345 40.3386 10.9878 39.1721 10.0659 38.7958C9.59551 38.5888 8.20323 38.363 6.73568 39.0216C3.74415 40.3574 2.55882 42.0319 1.44876 43.8757C-0.131675 46.5474 -0.376266 49.6519 0.545653 53.0573C0.865503 54.2426 1.27943 55.3151 1.78742 56.2558C2.29542 57.1965 2.87867 58.0432 3.57482 58.777C4.25214 59.5107 5.04236 60.1504 5.94547 60.6772C8.56071 62.2765 11.5522 62.634 14.9013 61.7309C15.7855 61.4863 16.6886 61.1288 17.6294 60.6396C18.2503 60.2445 18.8711 59.793 19.4732 59.285C19.8683 58.9463 20.1505 58.5324 20.3951 58.0996L24.6849 74.1109C25.2117 76.0676 27.2437 77.253 29.2004 76.7262L50.1788 71.1006L49.9342 72.2859C49.8589 72.681 49.8025 73.0949 49.8213 73.5089C49.8401 74.0545 49.9154 74.6377 50.0659 75.221C50.5739 77.0836 51.5334 78.4007 53.0198 79.2473C54.525 80.094 56.1806 80.2445 58.0997 79.7365C58.7771 79.5484 59.3791 79.3226 59.906 79.0404C60.4328 78.7581 60.9031 78.4195 61.2982 78.062C61.6934 77.7045 62.0508 77.2718 62.3331 76.7826C63.2173 75.3339 63.4055 73.7158 62.8975 71.8532C62.7658 71.364 62.5588 70.8748 62.2954 70.3668C62.0508 69.9717 61.7498 69.5954 61.43 69.2191L60.6397 68.3348L81.7122 62.6904C83.6689 62.1636 84.8542 60.1316 84.3274 58.1749L80.4704 43.8381L81.3735 43.7817C82.032 43.7252 82.7282 43.6123 83.4243 43.443C85.08 43.0103 86.4347 42.2765 87.4695 41.2605C88.5043 40.2445 89.2192 39.0216 90.1223 37.4223L90.7056 36.3875C90.8185 36.1805 91.1195 36.2182 91.1759 36.444L91.3265 37.0084C91.778 38.6829 93.4525 39.7553 95.1458 39.3414C96.8015 38.8334 97.8175 37.1025 97.366 35.4091ZM56.6698 25.9454C57.2155 28.0338 55.9925 30.1598 53.9417 30.7055C51.8909 31.2511 49.7837 30.0093 49.2568 27.9209C48.7112 25.8325 49.9342 23.7064 51.985 23.1608C54.017 22.6152 56.1242 23.8757 56.6698 25.9454ZM47.1308 19.7741C47.5635 18.4195 48.8053 17.5164 50.1788 17.1589L50.3481 17.1025C51.7216 16.745 53.1139 17.046 54.2992 17.855C54.9953 18.3254 54.9577 19.4731 54.6943 19.8306C54.5814 19.9811 54.4121 20.094 54.2427 20.1504C53.9981 20.2069 53.7347 20.1693 53.5278 20.0187C52.794 19.4731 51.8721 19.3038 51.0066 19.5484L50.8373 19.6048C49.9718 19.8306 49.2568 20.4515 48.8994 21.2793C48.7112 21.7121 48.222 21.9002 47.8081 21.7121C47.3566 21.5051 46.8862 20.5644 47.1308 19.7741ZM31.8345 26.2088C31.4205 26.0394 30.8561 25.0611 31.1948 24.3085C31.7592 23.0103 32.8693 22.0507 34.2427 21.6932C35.6162 21.3358 37.0838 21.5427 38.1938 22.4458C38.7583 22.9162 38.8523 24.0639 38.5889 24.4214C38.476 24.5719 38.3067 24.6848 38.1374 24.7412C37.8928 24.7977 37.6294 24.76 37.4224 24.6095C36.6886 24.0827 35.7667 23.8946 34.9012 24.1392C34.0358 24.3649 33.3208 24.9858 32.9633 25.8137C32.7564 26.2088 32.2484 26.3969 31.8345 26.2088ZM38.2126 35.0893C36.1618 35.6349 34.0546 34.3932 33.5278 32.3047C32.9822 30.2163 34.2051 28.0902 36.2559 27.5446C38.3067 26.999 40.4139 28.2408 40.9408 30.3292C41.4864 32.4176 40.2634 34.5437 38.2126 35.0893ZM55.6162 56.2746C51.2136 58.8522 45.5692 56.8767 42.9916 51.8344C40.414 46.8108 41.9003 40.6208 46.3029 38.0432C50.7056 35.4656 56.35 37.4411 58.9276 42.4835C61.5052 47.5258 60.0188 53.697 55.6162 56.2746ZM87.1684 34.0545C86.5287 35.2398 85.4375 36.03 83.9135 36.444C82.3707 36.8579 81.0536 36.7074 79.9248 35.9924C78.7583 35.2774 77.968 34.0733 77.4977 32.3988C77.0461 30.7243 77.1402 29.2756 77.7799 28.0526C78.4008 26.8673 79.4732 26.0582 80.9972 25.6443C82.5212 25.2304 83.8759 25.3997 85.0424 26.1523C86.1901 26.8485 86.9803 28.0338 87.4318 29.7271C87.921 31.4204 87.8269 32.8692 87.1684 34.0545Z" fill="#0CB5C3"/>
</g>
<defs>
<clipPath id="clip0">
<rect width="97.4788" height="80" fill="white"/>
</clipPath>
</defs>
</svg>
