<svg width="98" height="80" viewBox="0 0 98 80" fill="none" xmlns="http://www.w3.org/2000/svg">
<g clip-path="url(#clip0)">
<path d="M89.3742 17.6369L89.3255 17.6516C87.6535 18.1 86.659 19.8208 87.1075 21.4978L87.439 22.5897C87.517 22.8432 87.2147 23.0431 87.0149 22.8773L86.2251 22.229C86.0594 22.0876 85.8985 21.9462 85.7328 21.8C84.6701 20.8689 83.2954 20.2401 82.0718 19.9232L82.0523 19.9183C80.7459 19.543 79.2688 19.5722 77.6797 19.9963C76.7973 20.2352 75.9784 20.5472 75.2374 20.9372L74.4233 21.3661L70.2017 5.61573C69.6753 3.65119 67.6522 2.48124 65.6877 3.00772L44.8675 8.58447L45.0479 7.74601C45.1308 7.34627 45.1746 6.93679 45.1649 6.51756C45.1502 5.96671 45.0674 5.39149 44.9114 4.80651C44.4093 2.94435 43.4392 1.62328 41.9524 0.784821C40.4558 -0.0585155 38.7887 -0.219383 36.8631 0.297343C36.1904 0.47771 35.5859 0.7117 35.0643 0.994437C34.5427 1.2723 34.0748 1.60866 33.675 1.97914C33.2753 2.34475 32.9292 2.77861 32.6464 3.26121C31.7592 4.71389 31.574 6.32257 32.0761 8.19449C32.2077 8.67709 32.4076 9.17919 32.6757 9.68617C32.9194 10.0762 33.2119 10.4613 33.5483 10.8415L34.104 11.4703L13.1912 17.0666C11.2267 17.5931 10.0567 19.6161 10.5832 21.5806L18.5973 51.4874C18.4901 51.7214 18.3731 51.9456 18.2463 52.1699C17.8417 52.8621 17.3396 53.4861 16.7303 54.0125C16.1112 54.5195 15.4238 54.8705 14.6683 55.0752C13.0645 55.5042 11.6751 55.3385 10.5052 54.578C9.31575 53.8565 8.49191 52.6573 8.0483 50.9999C7.5852 49.2645 7.54133 47.8362 8.02393 46.5395C8.30667 45.7888 8.84289 44.8431 9.50099 44.6188C9.97872 44.4628 10.5198 44.38 11.0317 44.4092C12.9426 44.5213 12.6111 42.1766 12.1236 41.0066C11.8409 40.3242 10.9878 39.1688 10.0762 38.7837C9.60823 38.5839 8.2043 38.3499 6.73699 39.0031C3.75362 40.3339 2.56418 42.006 1.4576 43.8632C-0.131578 46.5297 -0.370442 49.6301 0.550892 53.0522C0.872627 54.2416 1.28211 55.3043 1.78421 56.2452C2.29119 57.186 2.88104 58.0245 3.56351 58.7654C4.24597 59.5064 5.03569 60.1401 5.92777 60.6666C8.5504 62.2655 11.5386 62.6165 14.8925 61.7196C15.7846 61.4807 16.6864 61.1151 17.6126 60.6227C18.2415 60.223 18.8606 59.7745 19.4553 59.2675C19.855 58.9312 20.128 58.5217 20.3717 58.083L24.6616 74.0869C25.188 76.0514 27.2111 77.2214 29.1756 76.6949L50.1518 71.0743L49.9032 72.254C49.8203 72.6537 49.7764 73.0632 49.7862 73.4824C49.8008 74.0333 49.8837 74.6085 50.0397 75.1935C50.5418 77.0556 51.5118 78.3718 52.9986 79.2151C54.4952 80.0585 56.1624 80.2193 58.083 79.7026C58.7558 79.5223 59.3602 79.2883 59.8818 79.0055C60.4034 78.7277 60.8714 78.3913 61.2711 78.0208C61.6709 77.6552 62.017 77.2214 62.2997 76.7388C63.1869 75.2861 63.3722 73.6774 62.8701 71.8055C62.7385 71.3229 62.5386 70.8208 62.2705 70.3138C62.0267 69.9238 61.7342 69.5387 61.3979 69.1585L60.613 68.2664L81.677 62.6214C83.6415 62.0949 84.8115 60.0719 84.285 58.1025L80.4339 43.7755L81.3309 43.717C81.9987 43.6683 82.6909 43.5561 83.388 43.3709C85.0357 42.9322 86.3909 42.1961 87.4243 41.187C88.4627 40.173 89.1646 38.9397 90.086 37.3457L90.6709 36.3073C90.7831 36.1075 91.0853 36.1465 91.1438 36.3658L91.2949 36.9362C91.7385 38.6034 93.4301 39.6856 95.107 39.2663C96.8132 38.8422 97.832 37.1019 97.3835 35.4104L93.2156 19.8501C92.7671 18.1878 91.0463 17.1885 89.3742 17.6369ZM32.8366 28.0056C33.4069 26.7089 34.5086 25.7486 35.8784 25.383C37.2482 25.0173 38.7253 25.2416 39.8221 26.1337C40.3876 26.5968 40.49 27.7423 40.2121 28.1128C40.0951 28.2688 39.9342 28.3761 39.7587 28.4248C39.5199 28.4882 39.2566 28.4492 39.047 28.2883C38.3207 27.7521 37.3993 27.5766 36.5268 27.8106C35.6542 28.0446 34.9473 28.6539 34.5817 29.4826C34.3965 29.9067 33.9041 30.1017 33.4849 29.9116C33.0657 29.7361 32.5099 28.7612 32.8366 28.0056ZM59.2384 37.4578C59.9013 39.939 60.1987 41.7915 60.1304 43.0199C60.0427 44.302 59.6527 45.5402 58.9605 46.7442C58.3122 47.9337 57.3128 48.9671 55.9674 49.8495C54.6853 50.6977 53.0669 51.3899 51.0829 51.9164C49.1232 52.438 47.3878 52.6525 45.8863 52.5452C44.3459 52.4672 42.9371 52.0772 41.655 51.3753C40.4851 50.7367 39.5443 49.869 38.8374 48.7673C38.1501 47.7533 37.4676 45.9838 36.7949 43.4635L34.8011 36.0295C34.26 34.0113 35.4592 31.9395 37.4773 31.3984C39.4955 30.8573 41.5673 32.0565 42.1084 34.0747L44.2338 42.006C44.7213 43.8242 45.3794 45.0478 46.2032 45.6669C46.988 46.3494 48.0605 46.5054 49.4401 46.1349C50.805 45.7693 51.6727 45.1063 52.0529 44.146C52.4332 43.1856 52.3795 41.7866 51.8872 39.9537L49.7618 32.0224C49.2207 30.0042 50.4199 27.9325 52.438 27.3914L52.6087 27.3426C54.6268 26.8015 56.6986 28.0007 57.2397 30.0189L59.2384 37.4578ZM55.3385 24.0668C55.2215 24.2228 55.0607 24.33 54.8852 24.3787C54.6463 24.4421 54.3831 24.4031 54.1735 24.2423C53.4471 23.706 52.5258 23.5305 51.6532 23.7645L51.4826 23.8133C50.61 24.0473 49.9032 24.6566 49.5376 25.4853C49.3523 25.9094 48.86 26.1044 48.4407 25.9143C48.0166 25.7291 47.5389 24.7834 47.7924 24.0034C48.2262 22.6531 49.4644 21.7464 50.8342 21.3808L51.0049 21.332C52.3747 20.9664 53.7786 21.2833 54.9486 22.0827C55.6456 22.5605 55.6164 23.6963 55.3385 24.0668ZM87.1855 34.0503C86.542 35.2398 85.4549 36.0343 83.9291 36.4438C82.3887 36.8582 81.0628 36.7022 79.9464 35.9905C78.7814 35.2739 77.9819 34.0698 77.5237 32.3929C77.0801 30.7257 77.1727 29.2779 77.8113 28.0446C78.4255 26.8503 79.5028 26.0459 81.0286 25.6364C82.5544 25.227 83.9047 25.3976 85.0698 26.1434C86.2105 26.8405 87.01 28.03 87.4633 29.7264C87.9264 31.4228 87.8289 32.8609 87.1855 34.0503Z" fill="#0CB5C3"/>
</g>
<defs>
<clipPath id="clip0">
<rect width="97.4956" height="80" fill="white"/>
</clipPath>
</defs>
</svg>
