<svg width="98" height="80" viewBox="0 0 98 80" fill="none" xmlns="http://www.w3.org/2000/svg">
<g clip-path="url(#clip0)">
<path d="M89.3762 17.6397L89.3299 17.6536C87.6559 18.1034 86.6635 19.8238 87.1133 21.4978L87.4472 22.5875C87.526 22.8426 87.2246 23.042 87.0206 22.875L86.2323 22.2258C86.0653 22.0867 85.903 21.943 85.7407 21.7992C84.6788 20.8671 83.3016 20.2411 82.0774 19.9212L82.0588 19.9165C80.7512 19.5409 79.2765 19.5687 77.686 19.9954C76.8049 20.2319 75.9842 20.5472 75.2422 20.9367L74.4261 21.368L70.2063 5.61558C69.6776 3.64943 67.6559 2.48087 65.6897 3.00951L44.8689 8.58335L45.0498 7.74403C45.1333 7.34524 45.175 6.93253 45.1657 6.51519C45.1518 5.96337 45.0683 5.38836 44.9107 4.80408C44.4099 2.93995 43.4407 1.623 41.9522 0.783677C40.4544 -0.0602829 38.7896 -0.222583 36.8652 0.296777C36.1928 0.477626 35.59 0.709483 35.066 0.992349C34.5467 1.27058 34.0783 1.60445 33.6749 1.97542C33.2761 2.34176 32.9283 2.77301 32.6454 3.25991C31.7597 4.71134 31.5742 6.32043 32.0751 8.19383C32.2049 8.6761 32.4043 9.17691 32.6732 9.68699C32.919 10.0765 33.2112 10.4614 33.545 10.8416L34.1015 11.4723L13.188 17.0693C11.2218 17.598 10.0533 19.6198 10.5819 21.5859L18.5949 51.4955C18.4882 51.7273 18.3723 51.9546 18.2425 52.1771C17.839 52.8681 17.3336 53.4941 16.7261 54.0181C16.1094 54.5235 15.4184 54.876 14.6626 55.08C13.0581 55.5112 11.6716 55.3443 10.4984 54.5838C9.30668 53.8604 8.48591 52.664 8.04074 51.0039C7.57703 49.2696 7.53529 47.8414 8.01756 46.543C8.30042 45.7918 8.83833 44.8458 9.4968 44.6232C9.97443 44.4656 10.517 44.3867 11.0271 44.4146C12.9376 44.5258 12.6083 42.1841 12.1168 41.0109C11.8339 40.3292 10.9807 39.1746 10.0672 38.7897C9.59882 38.5903 8.19377 38.3538 6.72843 39.0077C3.74675 40.3385 2.555 42.0125 1.44672 43.8674C-0.143817 46.5337 -0.380311 49.636 0.537843 53.0582C0.857806 54.2453 1.27051 55.3118 1.77132 56.2532C2.27677 57.1945 2.87033 58.0338 3.55199 58.7712C4.23365 59.5085 5.02196 60.1437 5.91693 60.6724C8.54155 62.2722 11.5279 62.6246 14.8805 61.725C15.7709 61.4885 16.6751 61.1222 17.6025 60.626C18.2332 60.2272 18.8499 59.7774 19.4435 59.272C19.8423 58.9335 20.1159 58.5254 20.3616 58.0895L24.651 74.0923C25.1796 76.0584 27.2014 77.227 29.1676 76.6983L50.146 71.0781L49.8956 72.256C49.8121 72.6548 49.7704 73.0675 49.7797 73.4848C49.7936 74.0366 49.877 74.6116 50.0347 75.1959C50.5355 77.0601 51.5047 78.377 52.9932 79.2163C54.491 80.0603 56.1557 80.2226 58.0755 79.7032C58.7479 79.5224 59.3507 79.2905 59.8747 79.0077C60.3941 78.7294 60.8624 78.3955 61.2659 78.0246C61.6647 77.6582 62.0124 77.227 62.2953 76.7401C63.181 75.2887 63.3665 73.6796 62.8657 71.8062C62.7358 71.3239 62.5364 70.8231 62.2675 70.313C62.0217 69.9235 61.7296 69.5386 61.3957 69.1584L60.612 68.268L81.6739 62.6246C83.6401 62.096 84.8086 60.0742 84.28 58.108L80.4405 43.7746L81.3354 43.7143C82.0032 43.668 82.6941 43.552 83.3943 43.3666C85.0405 42.926 86.3992 42.1934 87.4333 41.1825C88.472 40.1669 89.1722 38.9335 90.095 37.3429L90.6793 36.3042C90.7906 36.1048 91.092 36.1419 91.1523 36.3645L91.3053 36.9348C91.7505 38.6042 93.443 39.6847 95.117 39.2673C96.8235 38.8453 97.8437 37.1018 97.3939 35.4092L93.2251 19.847C92.7706 18.1869 91.0502 17.1899 89.3762 17.6397ZM32.8402 28.0083C33.4105 26.7099 34.5142 25.7501 35.8821 25.3837C37.2501 25.0174 38.7294 25.24 39.8284 26.1349C40.3941 26.5987 40.4961 27.744 40.2179 28.115C40.102 28.2727 39.9396 28.3793 39.7634 28.4257C39.5269 28.4906 39.2626 28.4489 39.0493 28.2912C38.3213 27.7533 37.4031 27.5771 36.5313 27.8136C35.6596 28.0454 34.9501 28.6575 34.5884 29.4876C34.4029 29.9096 33.9114 30.1043 33.4894 29.9188C33.0674 29.738 32.5109 28.7596 32.8402 28.0083ZM59.2441 37.4588C59.9072 39.9397 60.204 41.7946 60.1344 43.0234C60.0463 44.3079 59.6568 45.546 58.9659 46.747C58.3167 47.9342 57.3197 48.9682 55.9749 49.8539C54.695 50.7025 53.072 51.3935 51.092 51.9221C49.1305 52.4461 47.3962 52.6594 45.8937 52.5527C44.3542 52.4739 42.9445 52.0844 41.6647 51.3842C40.4961 50.7443 39.5548 49.8771 38.8453 48.7781C38.159 47.7626 37.4773 45.9958 36.8003 43.4732L34.8063 36.0399C34.2638 34.0227 35.4648 31.9499 37.482 31.4074C39.4991 30.8648 41.5719 32.0658 42.1145 34.083L44.2383 42.0125C44.7252 43.8303 45.3837 45.0545 46.2091 45.6759C46.9927 46.3575 48.0686 46.5152 49.4458 46.1442C50.8091 45.7779 51.6763 45.1148 52.0565 44.1549C52.4368 43.195 52.3811 41.7946 51.8896 39.9629L49.7658 32.0334C49.2232 30.0162 50.4242 27.9434 52.4414 27.4009L52.613 27.3545C54.6301 26.812 56.7029 28.013 57.2455 30.0301L59.2441 37.4588ZM55.3442 24.0668C55.2283 24.2244 55.066 24.3311 54.8898 24.3775C54.6533 24.4424 54.389 24.4006 54.1757 24.243C53.4476 23.7051 52.5295 23.5289 51.6577 23.7654L51.4861 23.8117C50.6144 24.0436 49.9049 24.6557 49.5432 25.4857C49.3577 25.9077 48.8661 26.1025 48.4442 25.917C48.0222 25.7315 47.5399 24.7855 47.795 24.0065C48.2309 22.6571 49.469 21.7482 50.8369 21.3819L51.0085 21.3355C52.3765 20.9692 53.7815 21.2891 54.9547 22.0867C55.6503 22.5597 55.6178 23.6958 55.3442 24.0668ZM87.1875 34.0505C86.5429 35.2377 85.4578 36.0352 83.9322 36.4433C82.3927 36.856 81.0665 36.703 79.9489 35.9889C78.785 35.2701 77.9828 34.0691 77.5283 32.3904C77.0832 30.7211 77.1759 29.2743 77.8158 28.0408C78.4326 26.8444 79.5084 26.0422 81.034 25.6341C82.5596 25.2261 83.909 25.393 85.0776 26.1396C86.2183 26.8351 87.0159 28.0269 87.4704 29.7241C87.9294 31.4213 87.8321 32.8634 87.1875 34.0505Z" fill="#FBFCFE"/>
</g>
<defs>
<clipPath id="clip0">
<rect width="97.4959" height="80" fill="white"/>
</clipPath>
</defs>
</svg>
