<svg width="98" height="80" viewBox="0 0 98 80" fill="none" xmlns="http://www.w3.org/2000/svg">
<g clip-path="url(#clip0)">
<path d="M89.3763 17.6397L89.3299 17.6536C87.6559 18.1034 86.6636 19.8238 87.1134 21.4978L87.4472 22.5875C87.5261 22.8426 87.2247 23.042 87.0206 22.875L86.2323 22.2258C86.0654 22.0867 85.9031 21.943 85.7408 21.7992C84.6789 20.8671 83.3016 20.2411 82.0774 19.9212L82.0589 19.9165C80.7512 19.5409 79.2766 19.5687 77.6861 19.9954C76.805 20.2319 75.9842 20.5472 75.2423 20.9367L74.4261 21.368L70.2063 5.61558C69.6777 3.64943 67.6559 2.48087 65.6898 3.00951L44.869 8.58335L45.0498 7.74403C45.1333 7.34524 45.175 6.93253 45.1658 6.51519C45.1519 5.96337 45.0684 5.38836 44.9107 4.80408C44.4099 2.93995 43.4408 1.623 41.9522 0.783677C40.4544 -0.0602829 38.7897 -0.222583 36.8653 0.296777C36.1929 0.477626 35.5901 0.709483 35.0661 0.992349C34.5467 1.27058 34.0784 1.60445 33.6749 1.97542C33.2761 2.34176 32.9283 2.77301 32.6455 3.25991C31.7598 4.71134 31.5743 6.32043 32.0751 8.19383C32.205 8.6761 32.4044 9.17691 32.6733 9.68699C32.9191 10.0765 33.2112 10.4614 33.5451 10.8416L34.1015 11.4723L13.188 17.0693C11.2219 17.598 10.0533 19.6198 10.582 21.5859L18.5949 51.4955C18.4883 51.7273 18.3724 51.9546 18.2425 52.1771C17.8391 52.8681 17.3336 53.4941 16.7262 54.0181C16.1094 54.5235 15.4185 54.876 14.6626 55.08C13.0582 55.5112 11.6717 55.3443 10.4985 54.5838C9.30674 53.8604 8.48597 52.664 8.0408 51.0039C7.57709 49.2696 7.53535 47.8414 8.01762 46.543C8.30048 45.7918 8.83839 44.8458 9.49687 44.6232C9.97449 44.4656 10.517 44.3867 11.0271 44.4146C12.9376 44.5258 12.6084 42.1841 12.1169 41.0109C11.834 40.3292 10.9808 39.1746 10.0672 38.7897C9.59888 38.5903 8.19383 38.3538 6.72849 39.0077C3.74681 40.3385 2.55506 42.0125 1.44678 43.8674C-0.143756 46.5337 -0.38025 49.636 0.537904 53.0582C0.857867 54.2453 1.27057 55.3118 1.77138 56.2532C2.27683 57.1945 2.87039 58.0338 3.55205 58.7712C4.23371 59.5085 5.02202 60.1437 5.91699 60.6724C8.54161 62.2722 11.5279 62.6246 14.8806 61.725C15.7709 61.4885 16.6752 61.1222 17.6026 60.626C18.2332 60.2272 18.85 59.7774 19.4435 59.272C19.8423 58.9335 20.1159 58.5254 20.3617 58.0895L24.6511 74.0923C25.1797 76.0584 27.2015 77.227 29.1676 76.6983L50.1461 71.0781L49.8957 72.256C49.8122 72.6548 49.7705 73.0675 49.7797 73.4848C49.7936 74.0366 49.8771 74.6116 50.0348 75.1959C50.5356 77.0601 51.5047 78.377 52.9933 79.2163C54.4911 80.0603 56.1558 80.2226 58.0756 79.7032C58.748 79.5224 59.3508 79.2905 59.8748 79.0077C60.3941 78.7294 60.8625 78.3955 61.2659 78.0246C61.6647 77.6582 62.0125 77.227 62.2954 76.7401C63.1811 75.2887 63.3666 73.6796 62.8657 71.8062C62.7359 71.3239 62.5365 70.8231 62.2676 70.313C62.0218 69.9235 61.7296 69.5386 61.3958 69.1584L60.6121 68.268L81.674 62.6246C83.6402 62.096 84.8087 60.0742 84.2801 58.108L80.4405 43.7746L81.3355 43.7143C82.0032 43.668 82.6942 43.552 83.3944 43.3666C85.0406 42.926 86.3992 42.1934 87.4333 41.1825C88.4721 40.1669 89.1723 38.9335 90.095 37.3429L90.6793 36.3042C90.7906 36.1048 91.092 36.1419 91.1523 36.3645L91.3053 36.9348C91.7505 38.6042 93.4431 39.6847 95.1171 39.2673C96.8235 38.8453 97.8437 37.1018 97.3939 35.4092L93.2251 19.847C92.7707 18.1869 91.0503 17.1899 89.3763 17.6397ZM32.8402 28.0083C33.4106 26.7099 34.5143 25.7501 35.8822 25.3837C37.2502 25.0174 38.7294 25.24 39.8284 26.1349C40.3941 26.5987 40.4962 27.744 40.2179 28.115C40.102 28.2727 39.9397 28.3793 39.7635 28.4257C39.527 28.4906 39.2627 28.4489 39.0494 28.2912C38.3213 27.7533 37.4032 27.5771 36.5314 27.8136C35.6596 28.0454 34.9501 28.6575 34.5884 29.4876C34.403 29.9096 33.9114 30.1043 33.4894 29.9188C33.0675 29.738 32.511 28.7596 32.8402 28.0083ZM59.2441 37.4588C59.9072 39.9397 60.204 41.7946 60.1345 43.0234C60.0464 44.3079 59.6568 45.546 58.9659 46.747C58.3167 47.9342 57.3197 48.9682 55.9749 49.8539C54.6951 50.7025 53.0721 51.3935 51.092 51.9221C49.1305 52.4461 47.3962 52.6594 45.8938 52.5527C44.3543 52.4739 42.9446 52.0844 41.6647 51.3842C40.4962 50.7443 39.5548 49.8771 38.8453 48.7781C38.159 47.7626 37.4774 45.9958 36.8004 43.4732L34.8064 36.0399C34.2638 34.0227 35.4649 31.9499 37.482 31.4074C39.4992 30.8648 41.572 32.0658 42.1145 34.083L44.2383 42.0125C44.7252 43.8303 45.3837 45.0545 46.2091 45.6759C46.9928 46.3575 48.0686 46.5152 49.4459 46.1442C50.8092 45.7779 51.6763 45.1148 52.0566 44.1549C52.4368 43.195 52.3812 41.7946 51.8896 39.9629L49.7658 32.0334C49.2233 30.0162 50.4243 27.9434 52.4414 27.4009L52.613 27.3545C54.6302 26.812 56.703 28.013 57.2455 30.0301L59.2441 37.4588ZM55.3443 24.0668C55.2284 24.2244 55.0661 24.3311 54.8899 24.3775C54.6534 24.4424 54.389 24.4006 54.1757 24.243C53.4477 23.7051 52.5296 23.5289 51.6578 23.7654L51.4862 23.8117C50.6144 24.0436 49.9049 24.6557 49.5432 25.4857C49.3577 25.9077 48.8662 26.1025 48.4442 25.917C48.0223 25.7315 47.54 24.7855 47.795 24.0065C48.2309 22.6571 49.469 21.7482 50.837 21.3819L51.0086 21.3355C52.3765 20.9692 53.7816 21.2891 54.9548 22.0867C55.6504 22.5597 55.6179 23.6958 55.3443 24.0668ZM87.1876 34.0505C86.543 35.2377 85.4579 36.0352 83.9323 36.4433C82.3928 36.856 81.0665 36.703 79.949 35.9889C78.7851 35.2701 77.9828 34.0691 77.5284 32.3904C77.0832 30.7211 77.176 29.2743 77.8159 28.0408C78.4326 26.8444 79.5085 26.0422 81.0341 25.6341C82.5597 25.2261 83.9091 25.393 85.0777 26.1396C86.2184 26.8351 87.016 28.0269 87.4704 29.7241C87.9295 31.4213 87.8321 32.8634 87.1876 34.0505Z" fill="#0BB5C3"/>
</g>
<defs>
<clipPath id="clip0">
<rect width="97.4959" height="80" fill="white"/>
</clipPath>
</defs>
</svg>
