<svg width="16" height="16" viewBox="0 0 16 16" fill="none" xmlns="http://www.w3.org/2000/svg">
<g clip-path="url(#clip0)">
<path d="M15.3796 12.3852L10.9947 8.00033L15.3796 3.61546C16.2065 2.78853 16.2065 1.44772 15.3796 0.620794C14.5526 -0.206135 13.2118 -0.206135 12.3849 0.620794L7.99967 5.00567L3.6148 0.620441C2.78752 -0.206488 1.44671 -0.206488 0.620136 0.620441C-0.206793 1.44772 -0.206793 2.78853 0.620136 3.6151L5.00536 7.99998L0.620136 12.3849C-0.206793 13.2121 -0.206793 14.5529 0.620136 15.3795C1.03413 15.7932 1.57553 15.9996 2.11764 15.9996C2.6594 15.9996 3.20151 15.7928 3.61515 15.3795L7.99967 10.995L12.3849 15.3799C12.7989 15.7932 13.3403 16 13.8824 16C14.4245 16 14.9663 15.7932 15.3799 15.3799C16.2065 14.5529 16.2065 13.2125 15.3796 12.3852Z" fill="#140A4C"/>
</g>
<defs>
<clipPath id="clip0">
<rect width="16" height="16" fill="white"/>
</clipPath>
</defs>
</svg>
