<svg width="16" height="16" viewBox="0 0 16 16" fill="none" xmlns="http://www.w3.org/2000/svg">
<path d="M15.3796 12.3851L10.9947 8.00027L15.3796 3.6154C16.2065 2.78847 16.2065 1.44766 15.3796 0.620733C14.5526 -0.206196 13.2118 -0.206196 12.3849 0.620733L7.99967 5.00561L3.6148 0.62038C2.78752 -0.206549 1.44671 -0.206549 0.620136 0.62038C-0.206793 1.44766 -0.206793 2.78847 0.620136 3.61504L5.00536 7.99992L0.620136 12.3848C-0.206793 13.2121 -0.206793 14.5529 0.620136 15.3795C1.03413 15.7931 1.57553 15.9996 2.11764 15.9996C2.6594 15.9996 3.20151 15.7927 3.61515 15.3795L7.99967 10.9949L12.3849 15.3798C12.7989 15.7931 13.3403 15.9999 13.8824 15.9999C14.4245 15.9999 14.9663 15.7931 15.3799 15.3798C16.2065 14.5529 16.2065 13.2124 15.3796 12.3851Z" fill="#FBFCFE"/>
</svg>
