<?xml version="1.0" encoding="UTF-8"?>
<svg id="Layer_1" xmlns="http://www.w3.org/2000/svg" version="1.1" viewBox="0 0 500 500">
  <!-- Generator: Adobe Illustrator 29.4.0, SVG Export Plug-In . SVG Version: 2.1.0 Build 152)  -->
  <defs>
    <style>
      .st0 {
        fill: #263238;
      }

      .st1 {
        fill: #fff;
      }

      .st2 {
        fill: #f0f0f0;
      }

      .st3 {
        fill: #635bff;
        fill-rule: evenodd;
      }

      .st4 {
        fill: #ff8b7b;
      }

      .st5 {
        opacity: .1;
      }

      .st5, .st6, .st7, .st8, .st9 {
        isolation: isolate;
      }

      .st10 {
        fill: #a02724;
      }

      .st11, .st6 {
        opacity: .3;
      }

      .st7 {
        opacity: .2;
      }

      .st12 {
        fill: #b55b52;
      }

      .st13 {
        fill: #ebebeb;
      }

      .st14 {
        fill: #f5f5f5;
      }

      .st8 {
        opacity: .6;
      }

      .st15 {
        fill: #ff5652;
      }

      .st9 {
        opacity: .4;
      }

      .st9, .st16 {
        fill: #675dff;
      }

      .st17 {
        fill: #fafafa;
      }

      .st18 {
        fill: #e6e6e6;
      }
    </style>
  </defs>
  <g id="freepik--background-complete--inject-90">
    <rect class="st13" y="382.4" width="500" height=".25"/>
    <rect class="st13" x="416.78" y="398.49" width="33.12" height=".25"/>
    <rect class="st13" x="322.53" y="401.21" width="8.69" height=".25"/>
    <rect class="st13" x="396.59" y="389.21" width="19.19" height=".25"/>
    <rect class="st13" x="52.46" y="390.89" width="43.19" height=".25"/>
    <rect class="st13" x="104.56" y="390.89" width="6.33" height=".25"/>
    <rect class="st13" x="131.47" y="395.11" width="93.68" height=".25"/>
    <path class="st13" d="M237,337.8H43.91c-3.15,0-5.7-2.56-5.7-5.71V60.66c.03-3.13,2.57-5.65,5.7-5.66h193.09c3.15,0,5.71,2.56,5.71,5.71h0v271.38c0,3.15-2.56,5.71-5.71,5.71ZM43.91,55.2c-3.01,0-5.45,2.45-5.45,5.46v271.43c0,3.01,2.44,5.45,5.45,5.46h193.09c3.01,0,5.45-2.45,5.46-5.46V60.66c0-3.01-2.45-5.45-5.46-5.46H43.91Z"/>
    <path class="st13" d="M453.31,337.8h-193.1c-3.15,0-5.7-2.56-5.71-5.71V60.66c.03-3.13,2.58-5.65,5.71-5.66h193.1c3.13.01,5.66,2.53,5.69,5.66v271.43c0,3.15-2.54,5.7-5.69,5.71ZM260.21,55.2c-3.01,0-5.45,2.45-5.46,5.46v271.43c0,3.01,2.45,5.45,5.46,5.46h193.1c3.01,0,5.45-2.45,5.46-5.46V60.66c0-3.01-2.45-5.45-5.46-5.46h-193.1Z"/>
    <rect class="st18" x="358.99" y="130.01" width="14.17" height="44.11"/>
    <polygon class="st2" points="411.57 174.12 364.55 174.12 357.45 122.49 404.47 122.49 411.57 174.12"/>
    <polygon class="st14" points="416.66 174.12 368.1 174.12 361 122.49 409.56 122.49 416.66 174.12"/>
    <polygon class="st1" points="371.61 170.05 365.63 126.56 406.05 126.56 412.04 170.05 371.61 170.05"/>
    <path class="st14" d="M379.6,156.88l-2.25-16.32c-.25-1.64.87-3.17,2.5-3.42.16-.03.33-.04.5-.04h14.69c1.52-.01,2.81,1.12,3,2.63l2.24,16.33c.25,1.64-.88,3.17-2.52,3.42-.16.02-.32.04-.48.03h-14.67c-1.53.02-2.82-1.12-3.01-2.63Z"/>
    <rect class="st18" x="73.16" y="81.68" width="211.79" height="130.65"/>
    <rect class="st2" x="75.7" y="81.68" width="214.69" height="130.65"/>
    <rect class="st18" x="73.16" y="212.34" width="211.79" height="10.11"/>
    <rect class="st2" x="84.76" y="212.34" width="214.69" height="10.11"/>
    <rect class="st17" x="83.32" y="89.3" width="199.45" height="115.42"/>
    <polygon class="st1" points="97.96 204.72 142.67 89.3 163.77 89.3 119.06 204.72 97.96 204.72"/>
    <polygon class="st1" points="123.6 204.72 168.31 89.3 176.53 89.3 131.82 204.72 123.6 204.72"/>
    <polygon class="st1" points="201.82 204.72 246.53 89.3 254.75 89.3 210.05 204.72 201.82 204.72"/>
    <rect class="st18" x="281.79" y="89.3" width=".97" height="115.42"/>
    <rect class="st18" x="400.66" y="174.12" width="44.84" height="208.28"/>
    <polygon class="st2" points="440.99 382.4 445.5 382.4 445.5 369.57 436.26 369.57 440.99 382.4"/>
    <rect class="st18" x="322.09" y="174.12" width="44.84" height="208.28"/>
    <rect class="st2" x="362.99" y="174.12" width="82.51" height="200.41"/>
    <polygon class="st2" points="367.5 382.4 362.99 382.4 362.99 369.57 372.23 369.57 367.5 382.4"/>
    <rect class="st18" x="366.49" y="177.79" width="75.51" height="94.54"/>
    <path class="st2" d="M412.42,185.15h-16.35c-7.1,0-13.89-2.92-18.78-8.08h53.91c-4.88,5.16-11.68,8.08-18.78,8.08Z"/>
    <rect class="st18" x="366.49" y="276.16" width="75.51" height="94.54"/>
    <path class="st2" d="M412.42,283.52h-16.35c-7.1,0-13.89-2.92-18.78-8.08h53.91c-4.88,5.16-11.68,8.08-18.78,8.08Z"/>
    <polygon class="st18" points="129.5 239.89 204.12 239.89 214.94 283.96 140.31 283.96 129.5 239.89"/>
    <polygon class="st18" points="140.31 283.96 140.62 286.39 215.24 286.39 214.94 283.96 140.31 283.96"/>
    <polygon class="st2" points="131.8 239.89 206.42 239.89 217.24 283.96 142.61 283.96 131.8 239.89"/>
    <polygon class="st1" points="144.19 281.94 134.36 241.9 204.84 241.9 214.67 281.94 144.19 281.94"/>
    <polygon class="st2" points="162.06 283.96 162.36 286.39 244.53 286.39 244.23 283.96 162.06 283.96"/>
    <rect class="st18" x="254.34" y="286.39" width="8.94" height="96"/>
    <rect class="st2" x="259.9" y="286.39" width="6.21" height="96"/>
    <rect class="st2" x="152.83" y="286.39" width="115.21" height="10.99"/>
    <rect class="st18" x="139.88" y="297.38" width="8.94" height="85.01"/>
    <rect class="st2" x="145.43" y="297.38" width="6.21" height="85.01"/>
    <rect class="st18" x="83.29" y="297.38" width="8.94" height="85.01"/>
    <rect class="st2" x="88.85" y="297.38" width="6.21" height="85.01"/>
    <rect class="st18" x="197.76" y="297.38" width="8.94" height="85.01"/>
    <rect class="st2" x="203.31" y="297.38" width="6.21" height="85.01"/>
    <rect class="st18" x="83.29" y="286.39" width="69.53" height="10.99"/>
    <path class="st2" d="M292.34,382.4h-2.17l-6.17-30.64-1.09-5.37-6.84-33.39h-26l-14.07,69.4h-2.2l14.36-70.68c.09-.48.51-.84,1-.85h27.84c.5,0,.93.36,1,.85l6,29.32,1,5.36,7.34,36Z"/>
    <path class="st2" d="M334.09,382.4h-2.18l-14.1-69.4h-26l-6.81,33.4-1,5.36-6.23,30.64h-2.17l7.31-36,1.08-5.35,6-29.32c.1-.48.51-.83,1-.85h27.75c.49.01.91.37,1,.85l14.35,70.67Z"/>
    <path class="st2" d="M270,311.93h47.78c9.12,0,14.18-6.2,16.76-16.42l1.26-5.84c1.55-6.44-2.41-12.92-8.86-14.48-.93-.22-1.88-.34-2.83-.33h-30c-6.2,0-7.84,1.48-12.13,10.82s-11.98,26.25-11.98,26.25Z"/>
    <path class="st2" d="M296.05,311.93h-50.92c-1.32,0-2.39-1.07-2.39-2.39h0v-.22c0-3.61,2.93-6.54,6.54-6.54h46.77v9.16h0Z"/>
  </g>
  <g id="freepik--Shadow--inject-90">
    <ellipse id="freepik--path--inject-90" class="st14" cx="250" cy="416.24" rx="193.89" ry="11.32"/>
  </g>
  <g id="freepik--character-female--inject-90">
    <polygon class="st4" points="203.03 384.25 196.63 388.37 185.03 374.88 191.43 370.76 203.03 384.25"/>
    <polygon class="st7" points="191.44 370.76 185.03 374.88 191.02 381.84 197.42 377.71 191.44 370.76"/>
    <polygon class="st4" points="154.12 406.25 146.76 406.97 139.11 389.47 146.47 388.75 154.12 406.25"/>
    <polygon class="st7" points="139.12 389.48 143.06 398.5 150.73 398.5 146.47 388.76 139.12 389.48"/>
    <path class="st0" d="M98.23,170c-3.7.33-3.8-5.95-10.3-3-8.26,3.76-5.47,9.59-11.92,9.35s-10.77,4.79-9.33,8.54,3.67,7.3-.89,8.81-7.66,2.84-7,6.62,3.89,5.3-1.55,7.71-4.89,12.83.44,12.84.22,5.2,5,10.48,12.05,6,15.08,3.4,6.41-4.75,12.11-.75,15.35,5,14.91-1.34-6-10.5-.76-13.8,12-4.93,9.88-11.35c-1.35-4-5.43-7.48-2.14-10.47,5.35-4.86,5.38-15.86-1.18-18.65-3.81-1.61-.14-9.49-12.35-8.39Z"/>
    <path class="st4" d="M91.11,219.42c-.18,3-.56,5.67-1,8.48s-1.08,5.55-1.81,8.3c-.71,2.78-1.62,5.51-2.71,8.16-.54,1.34-1.16,2.67-1.82,4-.33.66-.69,1.31-1.06,1.95-.17.33-.38.65-.57,1l-.29.47c-.2.31-.42.61-.66.89-.55.63-1.24,1.13-2,1.47-.68.31-1.41.5-2.16.55-1.1.06-2.2-.09-3.24-.44-1.55-.53-3.03-1.26-4.4-2.16-2.41-1.58-4.7-3.35-6.83-5.29-4.11-3.74-7.94-7.77-11.47-12.07l2.84-2.73c2,1.76,4,3.55,6.09,5.25s4.13,3.41,6.26,5c2.03,1.56,4.17,2.97,6.4,4.22.94.53,1.95.95,3,1.23.25.08.52.1.78.07h-.2c-.13.06-.25.15-.36.25l-.05.05s0,.07,0,0l.22-.41c.14-.27.3-.53.43-.81.28-.55.55-1.11.81-1.68.5-1.14,1-2.3,1.4-3.51.84-2.4,1.54-4.88,2.16-7.4s1.09-5.09,1.51-7.68.74-5.24,1-7.7l7.73.54Z"/>
    <path class="st16" d="M96.92,220.36c-.4,2.42-2.41,7-4,10.4-1.18,2.46-2.14,4.31-2.14,4.31l-1.4-.62-11.59-5.16c.88-6.25,2.31-13,9.2-16.07,4.3-1.9,10.64,2.78,9.93,7.14Z"/>
    <path class="st8" d="M96.92,220.36c-.4,2.42-2.41,7-4,10.4-1.18,2.46-2.14,4.31-2.14,4.31l-1.4-.62-11.59-5.16c.88-6.25,2.31-13,9.2-16.07,4.3-1.9,10.64,2.78,9.93,7.14Z"/>
    <path class="st6" d="M92.89,230.76c-1.18,2.46-2.14,4.31-2.14,4.31l-1.4-.62c.19-2.47.68-6.36,2-8.11.82,1.35,1.35,2.85,1.54,4.42Z"/>
    <path class="st4" d="M54.37,234.29l.92-6.73-7.55,2.44s1.2,4.07,3.89,5.74l2.74-1.45Z"/>
    <polygon class="st4" points="51.87 221.81 46.6 224.7 47.74 230.04 55.29 227.56 51.87 221.81"/>
    <path class="st0" d="M194.27,386.35l6.95-5c.25-.18.59-.15.8.07l4.73,4.93c.45.5.41,1.27-.09,1.72-.03.03-.07.06-.11.09-2.45,1.7-3.72,2.39-6.78,4.58-1.88,1.35-5.84,4.61-8.44,6.47s-4.57-.6-3.66-1.61c4.1-4.52,5.19-7.6,5.84-10.14.12-.45.39-.84.76-1.11Z"/>
    <path class="st0" d="M145.79,404.7h9c.33,0,.62.23.71.55l2,7.14c.17.59-.17,1.22-.77,1.39-.11.03-.22.05-.33.04h-20.8c-3.3,0-4-3.34-2.63-3.64,6.12-1.35,9.65-3.22,11.54-5,.35-.32.81-.49,1.28-.48Z"/>
    <path class="st16" d="M132.05,247.46l-29.47,9.32c-20.4-40.38-17.49-42.52-17.49-42.52,0,0,4.71-2.69,9.61-4.93.74-.34,1.49-.67,2.23-1,4.35-1.73,8.82-3.15,13.38-4.24.67-.18,1.34-.34,2-.5,3.63-.82,7.3-1.42,11-1.81.44,5.59.88,10.32,1.36,14.43.62,5.36,1.29,9.65,2,13.36,1.31,6.1,3.11,12.08,5.38,17.89Z"/>
    <path class="st8" d="M132.05,247.46l-29.47,9.32c-20.4-40.38-17.49-42.52-17.49-42.52,0,0,4.71-2.69,9.61-4.93.74-.34,1.49-.67,2.23-1,4.35-1.73,8.82-3.15,13.38-4.24.67-.18,1.34-.34,2-.5,3.63-.82,7.3-1.42,11-1.81.44,5.59.88,10.32,1.36,14.43.62,5.36,1.29,9.65,2,13.36,1.31,6.1,3.11,12.08,5.38,17.89Z"/>
    <path class="st6" d="M126.75,229.59c-2.83-4-5.54-13.31-4.84-16.8l2.8,3.44c.62,5.36,1.29,9.65,2.04,13.36Z"/>
    <path class="st1" d="M103.63,221.8s7.43-1.61,9.82,1.62c3.28-3.23,2.12-15.85.54-20.35-1.25.21-2.48.55-3.67,1l-5.25,8.12-1.44,9.61Z"/>
    <path class="st1" d="M103.63,221.8s-5,1.12-5.53,5.21c-7-5.21-6.51-12.84-4.93-17.34,1.2-.58,2.46-1.02,3.76-1.32l5.25,5.78,1.45,7.67Z"/>
    <path class="st4" d="M105.34,195.59c1,3.68,2.52,7.32,5,8.52,0,0,2.31,6.62-6.69,17.69-9.42-6.71-6.7-13.45-6.7-13.45,4.44-2.67,3.19-6.19,1.3-9.27l2.61-4.19c.74-1.15,2.28-1.48,3.43-.74.52.33.89.85,1.05,1.44Z"/>
    <path class="st7" d="M105.34,195.59c-.34-1.33-1.69-2.13-3.01-1.79-.62.16-1.16.55-1.5,1.09l-.84,1.34h0c.07.89.11,1.62.1,2-.08,2.6,3.57,2.48,6.54,1.23-.53-1.25-.96-2.55-1.29-3.87Z"/>
    <path class="st4" d="M87.25,185.54c2.6,7.09,3.54,10.15,8.3,12.77,7.15,3.95,15.29-.79,14.87-8.52-.38-6.95-4.56-17.39-12.49-18.16-5.67-.57-10.72,3.55-11.3,9.22-.16,1.59.05,3.2.62,4.69Z"/>
    <path class="st0" d="M105.64,174.88c-2.44-2.35-5-5.08-9.9-4.55-5.42.59-7.56,3.87-7.56,3.87l-4.66,10.19s2.89,13.12,7.66,7c2.75-3.54,2.82-8.89,1.82-12.89,1.87-.26,3.72-.69,5.52-1.28,2.2.82,4.67.82,6.5-.86.4-.37.69-.66.9-.89l.17-.19c.54-.69.09-.62-.45-.4ZM99.34,177c1.71-.55,3.44-1.02,5.2-1.39-1.33,1.41-3.34,1.95-5.2,1.39Z"/>
    <path class="st4" d="M87.61,192.75c.75,1.26,1.97,2.17,3.39,2.53,1.88.47,2.77-1.22,2.2-3-.51-1.57-2.1-3.71-4-3.41-1.35.25-2.25,1.54-2,2.9.06.35.2.69.41.98Z"/>
    <path class="st16" d="M102.58,256.79s-1,60.39,6.89,82.21c7.6,20.92,30.27,56.88,30.27,56.88l13.14-.33s-20.88-45.55-24.29-63.55c-5.68-29.87-4.43-82-4.43-82l-21.58,6.79Z"/>
    <path class="st6" d="M114.38,262l3.53-10,6.25-2s-.57,23.73.8,48.34c-5.67-10.92-10.58-30.92-10.58-36.34Z"/>
    <polygon class="st0" points="137.89 396.56 154.12 396.15 153.18 391.16 135.46 392 137.89 396.56"/>
    <path class="st16" d="M109,254.84s20.5,46.89,33.75,73.58c10.7,21.56,44,50.48,44,50.48l9.13-6.33s-25.06-34.26-32.45-48.88c-23.65-46.78-17.82-66.06-31.42-76.23l-23.01,7.38Z"/>
    <polygon class="st0" points="187.29 381.92 198.01 374.29 195.58 369.61 183.8 378.52 187.29 381.92"/>
    <path class="st0" d="M132,245.59l2.16,2.22c.17.17,0,.46-.35.57l-30.91,9.77c-.26.09-.52,0-.59-.13l-1.1-2.56c-.08-.17.1-.4.39-.49l29.85-9.45c.18-.08.39-.05.55.07Z"/>
    <path class="st16" d="M129,250.2l.8-.25c.16,0,.26-.18.21-.27l-1.45-3.31c-.09-.11-.24-.15-.37-.09l-.8.26c-.16.05-.26.17-.21.27l1.46,3.3c.03.1.19.14.36.09Z"/>
    <path class="st16" d="M105.19,257.73l.8-.25c.16-.05.25-.17.21-.27l-1.46-3.31c0-.1-.21-.13-.37-.08l-.8.25c-.15.05-.25.17-.21.27l1.46,3.31c.09.1.24.14.37.08Z"/>
    <path class="st16" d="M117.09,254l.8-.25c.16-.05.26-.17.21-.27l-1.46-3.31c0-.09-.2-.13-.36-.08l-.8.25c-.16,0-.26.17-.21.27l1.45,3.31c.05.08.21.08.37.08Z"/>
    <path class="st0" d="M99.69,184c.18.59.63,1,1,.86s.55-.69.37-1.27-.62-1-1-.86-.54.66-.37,1.27Z"/>
    <path class="st0" d="M106.34,182c.18.59.63,1,1,.86s.55-.68.38-1.27-.63-1-1-.86-.55.68-.38,1.27Z"/>
    <path class="st0" d="M106.56,180.81l1.29-.83s-.39,1.32-1.29.83Z"/>
    <path class="st15" d="M104.68,183.53c.93,1.18,2.01,2.24,3.22,3.13-.49.61-1.22.98-2,1l-1.22-4.13Z"/>
    <path class="st0" d="M103.92,190.9c.06-.05.08-.12.06-.19-.03-.09-.12-.15-.22-.13-1.47.48-3.09.22-4.34-.69-.08-.07-.19-.06-.26.02-.07.08-.06.19.02.26,1.35.99,3.09,1.28,4.68.76l.06-.03Z"/>
    <path class="st0" d="M97.18,182.37s.08-.1.1-.16c.3-.87.99-1.54,1.87-1.81.2-.02.34-.2.32-.4-.02-.2-.2-.34-.4-.32-.03,0-.05,0-.08.02-1.13.32-2.02,1.18-2.39,2.3-.07.18.02.39.2.47,0,0,0,0,0,0,.13.03.26-.01.36-.1Z"/>
    <path class="st0" d="M108.37,178.23s0-.05,0-.07c.03-.19-.1-.38-.29-.42-1.14-.24-2.32.08-3.18.86-.14.14-.13.37,0,.51.14.14.37.13.51,0h0c.69-.61,1.62-.85,2.52-.65.18.04.36-.05.43-.22Z"/>
    <path class="st4" d="M127.83,208.86c1.19.89,2.19,1.72,3.23,2.62s2,1.8,3,2.74c1.95,1.88,3.83,3.84,5.61,5.9,1.8,2.07,3.47,4.25,5,6.53.4.56.75,1.17,1.12,1.75s.74,1.17,1.07,1.79.68,1.17,1,1.86l.53,1.11.43,1.12c.92,2.84,1.35,5.82,1.28,8.8-.06,2.77-.36,5.54-.89,8.26-.52,2.67-1.2,5.28-2,7.84-.81,2.56-1.75,5.08-2.82,7.55l-3.62-1.34c.62-2.4,1.21-4.92,1.65-7.41.49-2.47.85-4.96,1.07-7.46.24-2.43.3-4.87.17-7.3-.07-1.15-.21-2.3-.42-3.44-.22-1.05-.52-2.08-.91-3.08l-.31-.69-.34-.63c-.27-.46-.64-1-1-1.51s-.66-1-1-1.51-.69-1-1.07-1.48c-1.46-2-3.11-3.82-4.75-5.67s-3.44-3.59-5.27-5.29c-.9-.86-1.83-1.7-2.76-2.52s-1.93-1.64-2.79-2.34l4.79-6.2Z"/>
    <path class="st4" d="M141.92,263l-5.48,4,7,3.7s2.09-3.7,1.42-6.79l-2.94-.91Z"/>
    <polygon class="st4" points="134.71 273.49 140.44 275.26 143.49 270.72 136.44 267.02 134.71 273.49"/>
    <path class="st16" d="M123.35,201.8c3.83-.17,11.36,9.24,11.36,9.24l-7.82,11.06s-8.78-7-9.46-11.87c-.57-4.15,1.04-8.23,5.92-8.43Z"/>
    <path class="st8" d="M123.35,201.8c3.83-.17,11.36,9.24,11.36,9.24l-7.82,11.06s-8.78-7-9.46-11.87c-.57-4.15,1.04-8.23,5.92-8.43Z"/>
    <path class="st16" d="M191.64,389.48h-.12c-.36-.04-.66-.28-.8-.61-.11-.19-.11-.43,0-.62.49-.84,3.24-1,3.55-1,.07,0,.14.04.17.1.04.06.04.14,0,.2-.67.74-1.86,1.93-2.8,1.93ZM193.84,387.65c-1.1.08-2.56.34-2.81.78-.06.08-.06.19,0,.27.09.22.28.38.52.42.53.06,1.37-.49,2.29-1.47h0Z"/>
    <path class="st16" d="M194.08,387.63c-.92,0-2.73-.51-3.07-1.25-.11-.27-.03-.58.2-.76.21-.19.49-.28.77-.25,1.09.12,2.38,1.89,2.43,2,.03.06.03.12,0,.18-.03.05-.08.09-.14.1l-.19-.02ZM191.86,385.73c-.15,0-.29.06-.4.16-.17.15-.15.27-.12.35.22.48,1.64,1,2.57,1-.46-.57-1.32-1.47-2-1.54l-.05.03Z"/>
    <path class="st16" d="M141.78,406.19c-.62.04-1.23-.1-1.76-.42-.28-.2-.45-.52-.46-.87-.02-.19.07-.38.23-.49.82-.55,3.89.84,4.5,1.13.07.03.11.1.1.18,0,.08-.06.14-.14.16-.81.19-1.64.29-2.47.31ZM140.35,404.63c-.13,0-.25.02-.36.08-.05.04-.08.1-.07.17,0,.24.13.46.32.6.53.4,1.78.46,3.39.16-1.03-.51-2.14-.85-3.28-1.01Z"/>
    <path class="st16" d="M144.21,405.88h-.06c-1-.42-3.08-2.07-3-2.92,0-.18.15-.42.61-.47,1.8-.22,2.56,3,2.59,3.18.01.07,0,.13-.06.18-.02.02-.05.03-.08.03ZM142,402.83h-.12c-.19,0-.29.08-.31.17-.06.49,1.36,1.8,2.4,2.37-.27-.79-.92-2.54-1.97-2.54Z"/>
    <path class="st0" d="M99.91,182.79l1.29-.83s-.39,1.32-1.29.83Z"/>
  </g>
  <path d="M288.63,109.67h-145.33c-6.28-.04-11.4,5.01-11.45,11.29,0,.24,0,.47.02.71l13.63,282.57c.4,6.68,5.89,11.91,12.58,12h145.33c6.27.04,11.39-5.01,11.44-11.28,0-.24,0-.48-.02-.72l-13.62-282.57c-.4-6.68-5.89-11.91-12.58-12Z"/>
  <path class="st0" d="M294,109.67h-145.37c-6.27-.04-11.39,5.01-11.44,11.28,0,.24,0,.48.02.72l13.62,282.57c.4,6.68,5.89,11.91,12.58,12h145.33c6.27.04,11.39-5.01,11.44-11.28,0-.24,0-.48-.02-.72l-13.62-282.57c-.4-6.66-5.87-11.89-12.54-12Z"/>
  <path class="st16" d="M163,408.24c-2.22-.06-4.03-1.79-4.19-4l-13.6-282.57c-.1-2.11,1.53-3.9,3.64-4,.06,0,.12,0,.17,0h145.33c2.22.05,4.04,1.78,4.19,4l13.62,282.57c.1,2.11-1.53,3.9-3.64,4-.05,0-.11,0-.16,0h-145.36Z"/>
  <path class="st5" d="M162.93,406.24c-1.11-.04-2.01-.9-2.1-2l-13.62-282.57c-.04-1.07.79-1.96,1.86-2,.01,0,.03,0,.04,0h145.33c1.11.03,2.01.89,2.1,2l13.62,282.57c.04,1.07-.79,1.96-1.86,2-.01,0-.03,0-.04,0h-145.33Z"/>
  <g class="st11">
    <path class="st17" d="M206.79,390h-28.79c-1.64-.02-2.99-1.3-3.08-2.94l-2.1-43.71c-.1-1.55,1.07-2.89,2.61-2.99.07,0,.14,0,.22,0h28.84c1.64.01,2.98,1.3,3.07,2.93l2.07,43.72c.1,1.55-1.08,2.89-2.63,2.99-.07,0-.14,0-.21,0h0ZM175.61,341.37c-.5,0-.99.2-1.34.56-.34.37-.52.86-.5,1.37l2.11,43.7c.06,1.11.97,1.99,2.08,2h28.83c1.01,0,1.84-.81,1.84-1.82,0-.04,0-.08,0-.12l-2.11-43.71c-.05-1.11-.96-1.99-2.07-2l-28.84.02Z"/>
    <path class="st17" d="M204.07,351.52h-27.07c-.28,0-.5-.22-.5-.5s.22-.5.5-.5h27.1c.28,0,.5.22.5.5s-.22.5-.5.5h-.03Z"/>
    <path class="st17" d="M204.35,357.17h-27.11c-.27,0-.49-.23-.5-.5,0-.28.22-.5.5-.5h27.11c.28,0,.5.22.5.5,0,.27-.23.49-.5.5Z"/>
    <path class="st17" d="M204.62,362.82h-27.11c-.27,0-.49-.23-.5-.5,0-.28.22-.5.5-.5h27.11c.28,0,.5.22.5.5s-.22.5-.5.5Z"/>
    <path class="st17" d="M204.89,368.47h-27.1c-.28,0-.5-.22-.5-.5s.22-.5.5-.5h27.1c.28,0,.5.22.5.5s-.22.5-.5.5Z"/>
    <path class="st17" d="M205.16,374.12h-27.1c-.28,0-.5-.22-.5-.5s.22-.5.5-.5h27.1c.28,0,.5.22.5.5s-.22.5-.5.5Z"/>
    <path class="st17" d="M199.88,379.77h-21.55c-.28,0-.5-.22-.5-.5s.22-.5.5-.5h21.55c.28,0,.5.22.5.5,0,.27-.23.49-.5.5Z"/>
  </g>
  <g class="st11">
    <path class="st17" d="M224.94,229.63l-19.77,3.16c-.76-1.88-1.77-3.65-3-5.27-1.18-1.24-2.58-2.26-4.13-3l.74,15.5c10.99,2.89,18.39,5.95,22.19,9.16,4.9,4.08,7.81,10.07,8,16.45.26,3.69-.41,7.38-1.97,10.74-1.48,3.13-3.61,5.91-6.25,8.15-2.46,2.11-5.3,3.72-8.37,4.74-3.6,1.08-7.34,1.67-11.1,1.74l.13,2.73c.12,2.03-1.43,3.78-3.46,3.9-.09,0-.17,0-.26,0h0c-2.18-.02-3.97-1.73-4.1-3.91l-.13-2.73c-4.39-.28-8.72-1.14-12.89-2.54-3.19-1.15-6.15-2.89-8.71-5.11-2.34-2-4.32-4.38-5.86-7.05-1.54-2.87-2.66-5.94-3.33-9.13l21.51-2.51c.81,3.53,1.81,6.08,3,7.65,1.49,1.83,3.41,3.26,5.58,4.18l-.91-18.92c-5.33-1.33-10.54-3.06-15.6-5.2-3.27-1.63-6.08-4.05-8.18-7.05-2.45-3.46-3.81-7.58-3.89-11.82-.47-5.92,1.69-11.75,5.9-15.94,4.24-4.27,10.74-6.64,19.5-7.1l-.07-1.39c-.12-2.03,1.43-3.78,3.46-3.9.09,0,.17,0,.26,0h0c2.18.02,3.97,1.73,4.1,3.91l.07,1.39c8,.5,14.2,2.39,18.61,5.68,4.43,3.34,7.58,8.1,8.93,13.49ZM190.24,224.28c-1.78.46-3.39,1.43-4.63,2.79-.84,1.13-1.25,2.52-1.15,3.93.05,1.51.6,2.96,1.56,4.12,1.34,1.4,3.03,2.41,4.89,2.93l-.67-13.77ZM200.61,277c3-.67,5.17-1.79,6.5-3.36,1.29-1.43,1.96-3.32,1.86-5.24-.1-1.74-.81-3.38-2-4.65-1.26-1.41-3.66-2.73-7.18-3.94l.82,17.19Z"/>
  </g>
  <path class="st7" d="M277.2,146.56h-99l9.65,200.11c.98,17.01,14.96,30.36,32,30.54h99l-9.64-200.11c-.97-17.02-14.96-30.37-32.01-30.54Z"/>
  <path class="st17" d="M301.45,146.56h-123.22c17.04.18,31.03,13.53,32,30.54l7.87,162.9c.98,17.01,14.96,30.36,32,30.54h62.13c15.93.17,28.97-12.61,29.14-28.54,0-.67,0-1.34-.05-2l-7.86-162.9c-.97-17.02-14.96-30.37-32.01-30.54Z"/>
  <path class="st18" d="M279.18,340c.95,15.89-11.17,29.55-27.07,30.49-.66.04-1.33.06-1.99.05h123.21c15.93.15,28.96-12.63,29.12-28.56,0-.66,0-1.32-.05-1.98h-123.22Z"/>
  <path class="st16" d="M318.8,247.67h-87.08c-1.27-.01-2.31-1.01-2.38-2.27h0c-.07-1.19.84-2.2,2.03-2.27.04,0,.09,0,.13,0h87.08c1.28,0,2.35.99,2.42,2.27h0c.07,1.19-.84,2.2-2.03,2.27-.06,0-.12,0-.17,0Z"/>
  <path class="st16" d="M319.48,261.84h-87.08c-1.27-.01-2.31-1.01-2.38-2.27h0c-.07-1.19.84-2.2,2.03-2.27.04,0,.09,0,.13,0h87.09c1.26.02,2.3,1.01,2.37,2.27h0c.07,1.19-.84,2.2-2.03,2.27-.04,0-.09,0-.13,0Z"/>
  <path class="st16" d="M320.17,276h-87.09c-1.27-.01-2.31-1.01-2.38-2.27h0c-.07-1.19.84-2.2,2.03-2.27.04,0,.09,0,.13,0h87.14c1.27.01,2.31,1.01,2.38,2.27h0c.07,1.19-.84,2.2-2.03,2.27-.06,0-.12,0-.18,0Z"/>
  <path class="st16" d="M320.85,290.19h-87.08c-1.26-.02-2.3-1.01-2.38-2.27h0c-.07-1.19.84-2.2,2.03-2.27.04,0,.09,0,.13,0h87.08c1.27.01,2.31,1.01,2.38,2.27h0c.07,1.19-.84,2.2-2.03,2.27-.04,0-.09,0-.13,0Z"/>
  <path class="st16" d="M286.91,304.36h-52.46c-1.27-.01-2.31-1.01-2.38-2.27h0c-.07-1.19.84-2.2,2.03-2.27.04,0,.09,0,.13,0h52.46c1.27.01,2.31,1.01,2.38,2.27h0c.07,1.19-.84,2.2-2.03,2.27-.04,0-.09,0-.13,0Z"/>
  <ellipse class="st16" cx="272.9" cy="198.72" rx="26.71" ry="28.03" transform="translate(-59.93 255.19) rotate(-45.69)"/>
  <path class="st1" d="M295.48,198.7c.19,3.72-.57,7.42-2.21,10.76-3.62,7.31-11.11,11.9-19.27,11.82-8.41-.06-16.17-4.55-20.42-11.82-1.95-3.27-3.06-6.96-3.25-10.76-.7-11.75,8.27-21.85,20.02-22.54.49-.03.98-.04,1.47-.04,12.59.16,22.92,10.01,23.66,22.58Z"/>
  <path class="st9" d="M293.27,209.46c-3.62,7.31-11.11,11.9-19.27,11.82-8.41-.06-16.17-4.55-20.42-11.82,5.76-3.95,12.58-6.04,19.56-6,7.15.01,14.14,2.1,20.13,6Z"/>
  <ellipse class="st9" cx="272.52" cy="190.96" rx="9.82" ry="10.3" transform="translate(-54.49 252.58) rotate(-45.69)"/>
  <g id="freepik--character-male--inject-90">
    <polygon class="st12" points="356.76 408.74 349.42 408.74 348.68 391.72 356.03 391.72 356.76 408.74"/>
    <polygon class="st7" points="348.69 391.73 349.06 400.5 356.41 400.5 356.03 391.73 348.69 391.73"/>
    <polygon class="st12" points="419.29 388.8 412.31 391.08 403.52 376.05 410.51 373.77 419.29 388.8"/>
    <polygon class="st7" points="410.51 373.77 403.52 376.05 408.06 383.8 415.04 381.52 410.51 373.77"/>
    <path class="st12" d="M381.6,162.92c.91,1.11,1.68,2.1,2.47,3.19s1.54,2.13,2.29,3.21c1.48,2.17,2.9,4.39,4.23,6.68,2.77,4.65,5.02,9.58,6.73,14.71l.17.5.08.26.11.41.2.82.11.75c.12.9.16,1.81.11,2.71-.09,1.53-.31,3.04-.66,4.53-.63,2.67-1.47,5.28-2.51,7.82-1.98,4.86-4.37,9.55-7.16,14l-5-2.39c1.5-4.69,3-9.49,4.1-14.16.57-2.25,1.01-4.54,1.3-6.84.12-.99.16-2,.11-3-.02-.36-.06-.71-.14-1.06l-.05-.18s-.04-.07-.05-.1h0l-.08-.19-.16-.39-.67-1.57-.75-1.56c-.5-1-1.05-2.08-1.6-3.12-1.14-2.06-2.37-4.11-3.65-6.15s-2.64-4-4-6-2.85-4-4.2-5.81l8.67-7.07Z"/>
    <path class="st12" d="M383.23,218.88l-2.87,6.35h8.21s1.31-4.82-1.67-6.77l-3.67.42Z"/>
    <polygon class="st12" points="381.32 232.37 388.94 230.9 388.57 225.23 380.36 225.23 381.32 232.37"/>
    <path class="st0" d="M345.22,130.69c0,.6-.31,1.08-.7,1.08s-.7-.48-.7-1.08.32-1.07.7-1.07.7.48.7,1.07Z"/>
    <path class="st10" d="M345,131.77c-.7,1.81-1.66,3.51-2.83,5.06.82.59,1.85.78,2.83.54v-5.6Z"/>
    <path class="st0" d="M347.32,127.41c-.07,0-.14-.02-.2-.07-.71-.53-1.62-.7-2.47-.45-.19.05-.38-.06-.43-.25-.04-.16.03-.33.18-.4,1.07-.34,2.24-.14,3.13.54.15.12.19.33.08.49-.07.09-.18.14-.29.14Z"/>
    <path class="st12" d="M364.35,137.52c-1.06,5.38-2.11,15.23,1.65,18.81,0,0-1.47,5.45-11.45,5.45-11,0-5.25-5.45-5.25-5.45,6-1.43,5.84-5.87,4.79-10.05l10.26-8.76Z"/>
    <path class="st0" d="M367.44,158.2c.79-1.72,1.66-3.7-.14-4.32-2-.68-12.76-1.37-16.49-.09-2.04.57-3.24,2.68-2.68,4.73,0,.02.01.04.02.05l19.29-.37Z"/>
    <path class="st16" d="M410.8,392.83c-.54.52-1.15.94-1.61.87-.3-.06-.53-.3-.57-.6-.06-.23-.02-.48.12-.67.6-.93,3-1.33,3.13-1.34.07,0,.13.02.17.07.04.06.04.13,0,.19-.36.54-.78,1.03-1.24,1.48ZM409.17,392.45c-.05.05-.1.1-.14.16-.08.12-.11.26-.07.4.08.31.23.34.28.34.51.08,1.6-1,2.27-1.84-.84.14-1.64.46-2.34.94h0Z"/>
    <path class="st16" d="M412,391.38l-.08.05c-.83.22-3,.08-3.46-.62-.14-.23-.11-.53.08-.72.17-.2.42-.33.69-.35,1.1-.08,2.69,1.33,2.76,1.39.05.04.07.11.05.17,0,.03-.02.06-.04.08ZM408.87,390.26l-.06.06c-.14.17-.08.26-.06.3.27.41,1.79.64,2.73.53-.62-.56-1.39-.93-2.22-1.06-.14.01-.27.07-.37.17h-.02Z"/>
    <path class="st16" d="M346.46,409.11c-.94,0-1.85-.13-2.15-.55-.17-.23-.17-.53,0-.76.12-.21.32-.35.55-.41,1.22-.33,3.79,1.13,3.9,1.2.06.03.1.11.08.18-.01.07-.06.12-.13.14-.74.13-1.5.2-2.25.2ZM345.3,407.69c-.11-.02-.23-.02-.34,0-.14.03-.27.12-.34.24-.12.22-.08.33,0,.39.34.47,2.2.48,3.56.29-.89-.49-1.87-.8-2.88-.92h0Z"/>
    <path class="st16" d="M348.68,408.91h-.07c-.88-.4-2.64-2-2.51-2.82,0-.2.17-.44.65-.49.36-.04.72.07,1,.3.93.77,1.13,2.75,1.14,2.83,0,.06-.03.12-.08.16-.04.02-.09.03-.13.02ZM346.89,405.91h-.1c-.32,0-.34.15-.34.19-.08.5,1.11,1.75,2,2.29-.09-.84-.44-1.63-1-2.26-.16-.13-.36-.2-.56-.2v-.02Z"/>
    <path class="st0" d="M411.7,390.27l6-5.71c.22-.21.55-.24.8-.07l5.56,3.72c.49.33.62,1,.29,1.49-.05.07-.1.14-.17.19-2.11,2-3.24,2.81-5.86,5.31-1.62,1.55-6.44,6.8-8.67,8.94s-4.63.2-3.91-.87c3.24-4.81,5.26-9.42,5.44-11.85.03-.43.22-.84.52-1.15Z"/>
    <path class="st0" d="M349.46,407.89h8c.3,0,.56.21.62.5l1.45,6.53c.13.57-.22,1.14-.79,1.27-.08.02-.17.03-.26.03-2.9,0-7.08-.21-10.72-.21-4.25,0-7.92.23-12.91.23-3,0-3.85-3.05-2.59-3.33,5.74-1.25,10.44-1.39,15.4-4.45.54-.35,1.16-.55,1.8-.57Z"/>
    <path class="st12" d="M339,173c-2.92,4.3-5.93,8.32-9.17,12.29-3.25,4.02-6.73,7.85-10.41,11.48l-1.42,1.38-.36.34-.26.24-.38.27c-.47.38-.98.71-1.51,1-1.69.89-3.55,1.41-5.45,1.53-2.91.17-5.82-.07-8.66-.72-5.14-1.13-10.13-2.89-14.85-5.22l1.84-5.2c4.68.94,9.42,1.58,14.18,1.94,2.09.17,4.2.08,6.27-.26.6-.09,1.16-.31,1.66-.65.05,0,0-.06,0-.06h0l.08-.08.29-.33,1.19-1.3c3.12-3.56,6.15-7.36,9.09-11.24s5.89-7.86,8.7-11.74l9.17,6.33Z"/>
    <path class="st16" d="M379.16,158c6.88,1.58,14.78,20.35,14.78,20.35l-13.83,9.48c-3.44-4.94-6.48-10.13-9.11-15.54-4.1-8.59,1.12-15.91,8.16-14.29Z"/>
    <path class="st6" d="M374.22,170l6.54,17.41-.65.45s-2.83-4-5.89-9.33v-8.53Z"/>
    <path class="st16" d="M338,158.37s-7.82,8.83-.43,63.5h39.29c.27-6-3.52-35.46,2.3-63.88-4.35-.84-8.74-1.39-13.16-1.66-5.56-.32-11.14-.32-16.7,0-3.81.38-7.59,1.07-11.3,2.04Z"/>
    <path class="st6" d="M342.36,174.18c-1.02,6.2-3.7,12.02-7.76,16.82-.16-3.52-.22-6.68-.21-9.51l7.97-7.31Z"/>
    <path class="st16" d="M345.75,164.33c1,6.95-12.74,24.72-12.74,24.72l-13.77-9.48s3.82-9.79,10.25-16.21c7.35-7.36,15.21-6.6,16.26.97Z"/>
    <path class="st12" d="M289.32,191l-5.39-5.57-5.75,7.41s4.38,4.23,9.59,3l1.55-4.84Z"/>
    <polygon class="st12" points="276.53 182.33 274.06 190.11 278.18 192.81 283.93 185.4 276.53 182.33"/>
    <path class="st12" d="M365,129.44c-.45,7.27-.34,11.56-4,15.29-5.53,5.62-14.51,2.29-16.24-5-1.57-6.54-.57-17.34,6.55-20.23,5.08-2.09,10.89.34,12.97,5.42.59,1.43.83,2.98.72,4.52Z"/>
    <path class="st0" d="M371.33,114.25c2.24,2.06,1.29,4.36.12,4.79,3.63.75,4.16,3.64,2.25,9.74-1.82,5.84-6.23,13.67-11.74,14.15-8.28.72-10.7-7.91-10.76-16.47-4.68.29-2.66-3.86-8.41-2.9-5,.83-3.12-3.07-7.37-4.77-4.93-2-3.94-9.55.66-7.38,0,0-2.13,1.4.35,2.72s2.24-1.73,7.15-2.1,5.48,3.83,11.22,1.3c7.2-3.18,11.93-3.33,16.53.92Z"/>
    <path class="st0" d="M368.57,119c.67-1.08,1.97-1.58,3.19-1.25,2.25.48,2.43,1.47,3.84,1.34s.9,1.37.9,1.37c0,0-.38-1.13-2.08-.5s-2.81-.91-3.54-.22-2.31-.74-2.31-.74Z"/>
    <path class="st12" d="M355.12,131.42c-.32,1.78-1.22,3.41-2.57,4.62-1.78,1.58-3.32.31-3.38-1.85,0-1.95.83-5.13,2.88-5.89s3.44.96,3.07,3.12Z"/>
    <path class="st0" d="M351.5,221.87s8.34,56.13,12.92,77.13c5,23,39.85,84.2,39.85,84.2l12.8-4.16s-27.75-55.14-30.61-77.95c-3.11-24.75-9.6-79.26-9.6-79.26l-25.36.04Z"/>
    <path class="st16" d="M400.69,379.2s2.93,4.48,2.93,4.48l14.38-4.68-1.69-4.3-15.62,4.5Z"/>
    <path class="st6" d="M356.77,241.87c9.64,1.89,8.62,37.84,7.46,56.33-2.78-13.07-6.85-38.22-9.63-56.07.67-.33,1.44-.42,2.17-.26Z"/>
    <path class="st0" d="M337.57,221.87s-1,54.93-.22,77.33c.83,23.3,9,99.6,9,99.6h12.45s.45-74.94,1-97.82c.6-25,3.61-79.11,3.61-79.11h-25.84Z"/>
    <path class="st16" d="M343.93,393.84c-.06,0,.7,5.17.7,5.17h15.14l.41-4.61-16.25-.56Z"/>
  </g>
  <path class="st3" d="M325.31,51.34c0-10.88-5.27-19.46-15.34-19.46s-16.24,8.58-16.24,19.38c0,12.79,7.22,19.25,17.59,19.25,5.06,0,8.88-1.15,11.77-2.76v-8.5c-2.89,1.44-6.21,2.34-10.41,2.34s-7.78-1.44-8.24-6.46h20.78c0-.55.09-2.76.09-3.78ZM304.31,47.3c0-4.8,2.93-6.8,5.61-6.8s5.36,2,5.36,6.8h-10.97ZM277.32,31.87c-4.16,0-6.84,1.95-8.33,3.32l-.55-2.63h-9.35v49.55l10.62-2.25.04-12.03c1.53,1.11,3.78,2.68,7.52,2.68,7.61,0,14.54-6.12,14.54-19.59-.04-12.32-7.06-19.04-14.49-19.04h0ZM274.77,61.15c-2.51,0-3.99-.89-5.01-2l-.04-15.77c1.11-1.23,2.64-2.08,5.06-2.08,3.87,0,6.54,4.33,6.54,9.9s-2.64,9.94-6.54,9.94ZM244.47,29.36l10.67-2.3v-8.63l-10.67,2.25v8.67ZM244.47,32.59h10.67v37.19h-10.67v-37.19ZM233.04,35.74l-.68-3.15h-9.18v37.19h10.62v-25.2c2.51-3.27,6.76-2.68,8.08-2.21v-9.77c-1.36-.51-6.33-1.45-8.84,3.15h0ZM211.79,23.37l-10.37,2.21-.04,34.04c0,6.29,4.72,10.92,11.01,10.92,3.48,0,6.03-.64,7.44-1.4v-8.63c-1.36.55-8.07,2.51-8.07-3.78v-15.09h8.07v-9.05h-8.07s.04-9.22.04-9.22ZM183.06,43.39c0-1.66,1.36-2.3,3.61-2.3,3.23,0,7.31.98,10.54,2.72v-9.99c-3.53-1.4-7.01-1.95-10.54-1.95-8.63,0-14.37,4.5-14.37,12.03,0,11.73,16.15,9.86,16.15,14.92,0,1.96-1.7,2.59-4.08,2.59-3.53,0-8.03-1.44-11.6-3.4v10.12c3.95,1.7,7.95,2.42,11.6,2.42,8.84,0,14.92-4.38,14.92-11.98-.04-12.67-16.23-10.41-16.23-15.17h0Z"/>
</svg>